<svg xmlns="http://www.w3.org/2000/svg" width="800" height="800" viewBox="0 0 800 800"><defs><style>.cls-1{isolation:isolate;}.cls-2{fill:#b8cc27;}.cls-3{fill:#ffe32a;}.cls-4{fill:#ef4d4d;}.cls-5{fill:#b8d2db;}.cls-18,.cls-37,.cls-38,.cls-39,.cls-40,.cls-41,.cls-42,.cls-53,.cls-54,.cls-6,.cls-7{fill:none;stroke-linecap:round;stroke-linejoin:round;}.cls-6{stroke:#918073;}.cls-37,.cls-38,.cls-39,.cls-40,.cls-6{stroke-width:9.81px;}.cls-7{stroke:#214775;}.cls-41,.cls-42,.cls-7{stroke-width:19.61px;}.cls-8{fill:#56698f;}.cls-9{fill:#b7bebc;}.cls-10{fill:#7f8a99;}.cls-11{fill:#3e4c60;}.cls-12{fill:#7aaeed;}.cls-13{fill:#2e5389;}.cls-14{fill:#214775;}.cls-15{fill:#4977a5;}.cls-16{fill:#ccb396;}.cls-17{fill:#6589bd;}.cls-18{stroke:#b7bebc;stroke-width:11.8px;}.cls-19{fill:#24774b;}.cls-20{fill:#3f2f36;}.cls-21{fill:#268e5a;}.cls-22{fill:#ffbb8d;}.cls-23{fill:#1e5435;}.cls-24{fill:#d9d9d9;}.cls-24,.cls-59,.cls-60{mix-blend-mode:multiply;}.cls-25{fill:#5b2727;}.cls-26{fill:#6d3232;}.cls-27{fill:#1e1e1d;}.cls-28{fill:#3caf78;}.cls-29{fill:#fff;}.cls-30{opacity:0;}.cls-31{fill:#070707;}.cls-32{fill:#212020;}.cls-33{fill:#6d4739;}.cls-34{fill:#ff9676;}.cls-35{fill:#a2a2c9;opacity:0.5;}.cls-36{fill:#cc2b33;}.cls-37,.cls-42{stroke:#2e5389;}.cls-38{stroke:#ccddd8;}.cls-39{stroke:#e1efea;}.cls-40{stroke:#7f8a99;}.cls-41{stroke:#7aaeed;}.cls-43{fill:#404963;}.cls-44{fill:#934631;}.cls-45{fill:#d36f54;}.cls-46{fill:#7a392a;}.cls-47{fill:#e0b196;}.cls-48{fill:#efcbab;}.cls-49{fill:#43535b;}.cls-50{fill:#61778c;}.cls-51{fill:#ffe9cf;}.cls-52{fill:#96725e;}.cls-53{stroke:#5b2727;}.cls-53,.cls-54{stroke-width:5.9px;}.cls-54{stroke:#37bcf7;}.cls-55{fill:#ff506e;}.cls-56{fill:#cff8ff;}.cls-57{fill:#ffae2c;}.cls-58{fill:#e58741;}.cls-59{fill:#8e7262;opacity:0.68;}.cls-60{fill:#a0a6ba;opacity:0.7;}.cls-61{fill:#506175;}.cls-62{fill:#bfcbd1;}.cls-63{fill:#ff4a42;}.cls-64{fill:#e63c3d;}.cls-65{fill:#d1e0e5;}.cls-66{fill:#334251;}.cls-67{fill:#492323;}</style></defs><title>Track 3</title><g class="cls-1"><g id="Layer_1" data-name="Layer 1"><rect class="cls-2" x="134.34" y="214.09" width="40.85" height="42.02" transform="matrix(0.98, -0.21, 0.21, 0.98, -46.35, 38.19)"/><rect class="cls-3" x="120.34" y="163.9" width="40.85" height="42.02" transform="translate(9.55 -6.9) rotate(2.9)"/><rect class="cls-4" x="419.13" y="207.08" width="40.85" height="42.02" transform="translate(12.12 -21.98) rotate(2.9)"/><rect class="cls-5" x="19.94" y="669.07" width="760.13" height="24.29" rx="12.15"/><path class="cls-6" d="M405.34,435.64v23.11A19.32,19.32,0,0,0,424.6,478H482c10.59,0,17.93-8.57,16.31-19l-6.81-44.08c-1.62-10.46-6.18-19-10.12-19h-7.18"/><path class="cls-7" d="M491.48,395.87H424.6c-10.59,0-19.26,7.06-19.26,15.69v15.69"/><path class="cls-8" d="M531.45,674.52a14.91,14.91,0,0,1-29.82,0"/><path class="cls-8" d="M633,674.52a14.91,14.91,0,0,1-29.82,0"/><path class="cls-8" d="M714.27,674.52a14.91,14.91,0,0,1-29.82,0"/><rect class="cls-9" x="552.45" y="518.46" width="26.86" height="98.16"/><polygon class="cls-10" points="552.45 518.8 552.45 556.53 579.3 548.29 579.3 518.8 552.45 518.8"/><polygon class="cls-9" points="536 632.9 536 641.17 595.75 641.17 595.75 626.49 536 632.9"/><rect class="cls-11" x="531.06" y="487.21" width="69.63" height="46.39" rx="11.8"/><rect class="cls-11" x="481.73" y="479.61" width="168.29" height="39.18" rx="11.8"/><path class="cls-12" d="M719.06,490.28A10.43,10.43,0,0,1,708.49,502H528.73a13.43,13.43,0,0,1-13-11.73l-14-133.63a81.35,81.35,0,0,1,1.58-23.19L547,154.55c1.54-6.3,8-12.66,14.29-14.13l102.57-23.84a124.16,124.16,0,0,1,23.29-2.67h21.32a10.86,10.86,0,0,1,11,11.77L704.68,333.15a161.71,161.71,0,0,0,.39,23.5Z"/><path class="cls-13" d="M694.9,490.28A10.43,10.43,0,0,1,684.33,502H507.86a13.43,13.43,0,0,1-13-11.73l-14-133.63a80.58,80.58,0,0,1,1.6-23.18l51.39-208.1a15.89,15.89,0,0,1,14.63-11.46H661.74a12.22,12.22,0,0,1,12.11,11.8l5.52,207.42c.18,6.48.87,17.07,1.54,23.52Z"/><path class="cls-14" d="M624.39,401.9c1.65,16.81,1.65,28.66,30.32,28.66h43l-2.21,25.35-66.69,8.27L600.69,446l9.92-36.93Z"/><rect class="cls-15" x="384.43" y="448.81" width="311.7" height="53.2" rx="18.88"/><path class="cls-13" d="M583.41,448.71c-21.23,0-36.55,42.28-36.55,42.28H443l1.9-42.28Z"/><path class="cls-16" d="M581.92,484.31a17.75,17.75,0,0,0,17.7,17.7h87a18.92,18.92,0,0,0,18.63-17.67l1-17.86a16.64,16.64,0,0,0-16.76-17.67H599.62a17.75,17.75,0,0,0-17.7,17.7Z"/><path class="cls-17" d="M499.13,344.52c-6.49.22-10.69-4.79-9.33-11.14l44.41-207.93a15.26,15.26,0,0,1,14.26-11.54H684.33a10.85,10.85,0,0,1,11,11.77L681,326.61a13.44,13.44,0,0,1-12.63,12.17Z"/><polyline class="cls-18" points="434.31 646.11 565.88 621.81 699.36 646.11"/><polyline class="cls-18" points="516.54 646.11 565.88 621.81 617.13 646.11"/><path class="cls-8" d="M449.33,674.52a14.91,14.91,0,1,1-29.82,0"/><path class="cls-9" d="M419.51,675.24a2.18,2.18,0,0,1-2.19-2.18,17.1,17.1,0,1,1,34.2,0,2.18,2.18,0,0,1-2.19,2.18Z"/><path class="cls-9" d="M434.42,658.15a14.91,14.91,0,0,1,14.91,14.91H419.51a14.9,14.9,0,0,1,14.91-14.91m0-4.38a19.31,19.31,0,0,0-19.29,19.29,4.38,4.38,0,0,0,4.38,4.37h29.82a4.38,4.38,0,0,0,4.38-4.37,19.31,19.31,0,0,0-19.29-19.29Z"/><path class="cls-9" d="M501.63,675.24a2.18,2.18,0,0,1-2.19-2.18,17.1,17.1,0,0,1,34.2,0,2.18,2.18,0,0,1-2.19,2.18Z"/><path class="cls-9" d="M516.54,658.15a14.91,14.91,0,0,1,14.91,14.91H501.63a14.9,14.9,0,0,1,14.91-14.91m0-4.38a19.31,19.31,0,0,0-19.29,19.29,4.38,4.38,0,0,0,4.38,4.37h29.82a4.38,4.38,0,0,0,4.38-4.37,19.31,19.31,0,0,0-19.29-19.29Z"/><path class="cls-9" d="M603.19,675.24a2.18,2.18,0,0,1-2.19-2.18,17.1,17.1,0,0,1,34.2,0,2.18,2.18,0,0,1-2.19,2.18Z"/><path class="cls-9" d="M618.1,658.15A14.91,14.91,0,0,1,633,673.06H603.19a14.9,14.9,0,0,1,14.91-14.91m0-4.38a19.31,19.31,0,0,0-19.29,19.29,4.38,4.38,0,0,0,4.38,4.37H633a4.38,4.38,0,0,0,4.38-4.37,19.31,19.31,0,0,0-19.29-19.29Z"/><path class="cls-9" d="M684.45,675.24a2.18,2.18,0,0,1-2.19-2.18,17.1,17.1,0,0,1,34.2,0,2.18,2.18,0,0,1-2.19,2.18Z"/><path class="cls-9" d="M699.36,658.15a14.91,14.91,0,0,1,14.91,14.91H684.45a14.9,14.9,0,0,1,14.91-14.91m0-4.38a19.31,19.31,0,0,0-19.29,19.29,4.38,4.38,0,0,0,4.38,4.37h29.82a4.38,4.38,0,0,0,4.38-4.37,19.31,19.31,0,0,0-19.29-19.29Z"/><path class="cls-11" d="M584.24,618.08V582.41a5.92,5.92,0,0,0-5.9-5.9H553.41a5.92,5.92,0,0,0-5.9,5.9v35.67"/><line class="cls-18" x1="434.42" y1="662.89" x2="434.42" y2="647.1"/><line class="cls-18" x1="516.54" y1="662.89" x2="516.54" y2="647.1"/><line class="cls-18" x1="618.1" y1="662.89" x2="618.1" y2="647.1"/><line class="cls-18" x1="699.36" y1="662.89" x2="699.36" y2="647.1"/><path class="cls-13" d="M605.84,225.41c7.09.69,14.45,1.38,20.77,5.09a25.53,25.53,0,0,1,7.54,6.78c6.1,8.11,10,22.19,9.6,47.15-.87,55.43-3.21,105.82,9.6,127.77,6.19,10.61-9-10.93-25.65-11.4-17.85-.52-37.59,19.57-38.68,17.52-2.09-4-6.7-60.46-6.7-60.46s-4-77.39,1.21-89.26,19.1-28.44,19.1-28.44Z"/><path class="cls-13" d="M491.37,346a10.24,10.24,0,0,1-9.29-12.61l44.41-207.93a15.27,15.27,0,0,1,14.26-11.54h50.06a10.92,10.92,0,0,1,11,11.77L587.41,342.91a11.48,11.48,0,0,1-12.53,10.7Z"/><path class="cls-19" d="M419.57,611.64c-2.48,7.72-9.37,23.71-8.27,32.25s5.24,11.3,11,12.13,17.64-1.66,25.36-16.82,13.23-26.36,15.71-33.34c2.07-5.84-3.31-24.25-10.2-28.39,0,0-1.22,10.68-8,23.7C438,615,430.32,616.05,427.28,616.05c-6.06,0-4-5.51-4-10.19S419.57,611.64,419.57,611.64Z"/><path class="cls-20" d="M427.34,621.65c-6.91-.81-9.15-5.18-7.36-11.11s1.79-31.41,1.79-31.41l31.7-9.93,3.13,15.36S448.36,624.13,427.34,621.65Z"/><path class="cls-20" d="M509.58,612.32c1.1-3.86,3.3-12.5,5-17.46s1.65-16.35,1.65-16.35l31.6-12.31v11l-9.37,39.32-19.84,20.21s-10.47-5.88-10.29-6.43S509.58,612.32,509.58,612.32Z"/><path class="cls-21" d="M553.67,604.05c-1.84,4.59-6.25,18.92-11.76,32.15S530.14,652.75,516.73,654s-19.28-6.45-17.62-15.09,12.45-36.47,15.42-44.06c-.24.73-4.94,15.11-.22,21.19a7.24,7.24,0,0,0,6.11,2.67c14,0,18.55-13.42,21.49-21s5.7-22.41,5.7-22.41a57,57,0,0,1,4.41,8.44,27.39,27.39,0,0,1,1.18,3.11C555.06,593,555.23,600.16,553.67,604.05Z"/><path class="cls-19" d="M553.67,604.05c-1.84,4.59-6.25,18.92-11.76,32.15S529.79,655.68,516.37,657s-18.92-9.37-17.26-18,12.45-36.47,15.42-44.06c-.24.73-4.94,15.11-.22,21.19-5.18,15.62-7.95,22.45-2.91,27.48,5.51,5.52,19.84,3.31,28.66-19.84,5.7-15,10.47-28.83,13.14-36.78C555.06,593,555.23,600.16,553.67,604.05Z"/><path class="cls-22" d="M342,323.12c7.42-13.19,11.13-18.54,21-16.07s26,10.3,41.63,10.3,4.94,10.72,4.94,10.72Z"/><path class="cls-21" d="M477.24,289.47c1.8-7.92-3.5-7.52,3.47-16s34.58-42.92,52.8-47.29S536.27,269,536.27,269l-28.08,32Z"/><path class="cls-19" d="M506.53,286.33c-2.21,9.56,3.67,23.52,4.41,12.13s5.14-36.38,8.08-43c0,0-18,6.61-29.76,22.41Z"/><path class="cls-23" d="M488,281.86c-3.1-.62-8.36-4.76-7.39-7.86S490.78,266.28,508,287c12.62,15.14-13.41,29.88-22.34,2.15C483.8,283.31,488,281.86,488,281.86Z"/><path class="cls-22" d="M363.75,335.62c44.19,8.08,83.27-.35,104.78-13.67a124.77,124.77,0,0,0,29.8-25.58c2.5-3,4.71-5.88,6.67-8.69,1.43-2.06-2.19-7.64-9.13-12.57-4.6-3.25-8.06-4.15-10.54-4a6.14,6.14,0,0,0-4.62,2.32,97.07,97.07,0,0,1-27.17,24.83c-23.31,14.43-53.43,20.53-89.55,18.15Z"/><path class="cls-24" d="M485.33,271.15c7.43,5.86,11.38,16,13,25.22,2.5-3,4.71-5.88,6.67-8.69,1.43-2.06-2.19-7.64-9.13-12.57C491.27,271.86,487.81,271,485.33,271.15Z"/><path class="cls-25" d="M417.63,579.15l.15-8.59c.61-35.75,1.38-71.6,10.39-108.58,4.23-17.38,13.47-29.76,27.45-36.79,10.94-5.5,22.38-6.41,31.57-7.14,4.3-.34,9.64-.77,11.77-1.63,3-1.18,6.54-2.23,11.08-3.56,25.87-7.56,33.27-12.68,35.3-15.3.59-11.84,10.37-53.4,22.35-53.4a22.37,22.37,0,0,1,22.37,22.38c0,37.41-45.56,82.88-67.46,89.28-2.65.77-6,1.74-7,2.13-8.46,3.4-17.2,4.1-24.91,4.71-17,1.35-17.24,2.33-19.09,9.91-7.83,32.14-8.52,63.48-9.12,98.76l-.16,8.66C462.14,592.2,417.39,591.51,417.63,579.15Z"/><path class="cls-26" d="M551.76,569.65c.25-13.26-.47-22.7-1.17-34.84-1.29-22.31-2.5-43.38,2.77-65,2.24-9.19,14.94-20.6,37.81-20.6,5.9,0,19.58,5.36,26.79-3.3,10.77-12.93,12.84-40.91,12.84-79.33a22.38,22.38,0,0,0-22.38-22.38c-12.36,0-22.38,42.17-22.38,54.53,0,9.3-1.57,12.76-2,13.5-2.11,1-9.05,1.47-13.25,1.74-17.72,1.12-50.7,3.22-60.94,45.25-6.86,28.15-5.39,53.6-4,78.21.68,11.82,1.32,23,1.1,34.54-.18,9.82,21.77,11.34,34.4,8.5C549.2,578.68,551.71,572.15,551.76,569.65Z"/><path class="cls-21" d="M521.19,310.48c-.79,16.95-3.48,47.44-6.21,72-1.92,17.17-3.86,31.48-5.21,36.35a6.23,6.23,0,0,1-.28.83s0,0,0,0a.36.36,0,0,1-.17-.07A70.23,70.23,0,0,0,485.93,418q1.5-5,2.82-10.7c1.38-6,2.83-13.66,4.23-22.19,5.23-31.77,10-75.33,9.87-87.43,0,0,.24-.08.7-.19a64.56,64.56,0,0,1,7.7-1.48c4.2-.52,8.61-.5,9.8,1.67C521.53,298.59,521.53,303.32,521.19,310.48Z"/><path class="cls-27" d="M505.49,130.32c-2.76,36.55,29.79,69.37,66.23,72.44s69-11.33,73.73-47.68l4-35.77a63.17,63.17,0,0,0-57.89-71.53L578.8,46.73a66.36,66.36,0,0,0-71.46,61Z"/><path class="cls-28" d="M640.83,317.9c-.23,4.93-.59,9.88-1.06,14.81-.83,8.57-2,21.57-3.44,35.43-2.43,23.28-5.65,49-9.38,60.26-2.59,7.83-11.6,5.26-22.47.59-8.37-3.59-17.84-8.44-26.33-10.75a43.68,43.68,0,0,0-17.85-1.41h0c-.58.06-1.14.16-1.69.26-9.44,1.68-16.4,6.28-25.07,7.42l-.45.06c-.29,0-.53.06-.77.08-6.18.67,5.94-2.36-14-6.41-3.38-.68.16-15.21,4.09-36.59,4.52-24.7,9.56-58.58,5-90.84-.7-5-1.9-10.38-3.15-15.83-4.27-18.59-9.16-38.07,2.79-46.85h0c3.21-2.35,7.61-3.94,13.54-4.55.24,0,.48,0,.73-.06.42,0,.84-.08,1.26-.1l12.89-.79,41.32-2.54c18.92,0,30.77,13.23,37.44,33.12,3.44,10.28,5.46,22.34,6.37,35.26A252.77,252.77,0,0,1,640.83,317.9Z"/><path class="cls-21" d="M610.87,351.54l-16.72,21.6L560.3,416.83h0c-.58.06-1.14.16-1.69.26-9.44,1.68-16.4,6.28-25.07,7.42l-.45.06c-.27,0-.52.06-.77.08a24.16,24.16,0,0,1-2.63.21c-1.78,0-2.59-.35-4.85-1.16a104.82,104.82,0,0,0-13.6-3.57h0l-1.51-.31a.6.6,0,0,1-.21-.08.36.36,0,0,1-.17-.07c-3-1.6,1.72-14.28,4.8-37a259.36,259.36,0,0,0-.42-72.16c-.67-4.67-1.47-9.48-2.43-14.44-.32-1.66-.65-3.33-1-5-3.55-16.84-4.6-38.25,4.34-52.43,5-8,13.28-13.75,26-15,.24,0,.48,0,.73-.06.42,0,.84-.08,1.26-.1l12.89-.79c2.15,6.55,2.73,24.27,10.68,23.69,16.33-1.2,23.48,1.26,25.36,19.71,2.76,27,3.28,47.18,3.28,47.18l13.28.05Z"/><path class="cls-22" d="M625.51,160.81a12.31,12.31,0,0,0,10.75,13.72h0A12.33,12.33,0,0,0,650,163.78l1.26-10.39a12.32,12.32,0,0,0-10.75-13.73h0a12.34,12.34,0,0,0-13.73,10.76Z"/><path class="cls-29" d="M596.84,220.08c.82,13.3-17.35,25.41-30.65,26.23l-3.55.22c-13.3.82-19.19-9.81-20-23.11Z"/><path class="cls-22" d="M548.84,221.65c.61,9.95,2.8,17,13.26,16.37l3.58-.22c10.47-.65,25.39-8.77,24.78-18.72l-.86-13.9c-.61-10-9.67-17.57-20.13-16.93l-3.59.23c-10.46.64-18.51,9.31-17.9,19.26Z"/><path class="cls-24" d="M589.87,209.55c.37,6-14.28,14.16-21.91,15.17s-18.81,2-19.23-4.79l-2.13-34.49,41.45-5.52Z"/><path class="cls-22" d="M512,155.07c-1.37,33.2,16.4,54.09,49.4,56.8s72.21-23.29,76.27-56.27l2.83-19.78c4.06-33-19.3-55.3-52.42-58l-29.86-2.45c-33.11-2.71-43.63,16.84-45,50Z"/><g class="cls-30"><path class="cls-29" d="M582.53,136.45a1.72,1.72,0,1,0,1.85-1.56A1.71,1.71,0,0,0,582.53,136.45Z"/></g><path class="cls-31" d="M612.63,89.43l-71.48-5.87c-7.81-.64-14.66-1.33-18.86-5.89-13.53-14.7-8.6-41.15-8.6-41.15s5.76,5.35,38.14,8c33.85,2.78,60.85.12,82.85,27.25C640.17,78.54,612.63,89.43,612.63,89.43Z"/><path class="cls-31" d="M587,80.83c-.41,5.08-6.2,5.81,4.78,6.71,11.29.93,28.59,7.79,26.58,32.33-.84,10.2-1.66,20.29-2,24.82s8.48,7.38,11.34,1c3.79-8.44,12.24-6.11,12.88-6.05,4.69.45,4.59-37.2,2.41-40.55s-12.43-18.2-15.73-20.7-28.63-13.24-28.63-13.24-8.56-3.5-12,.68S587,80.83,587,80.83Z"/><path class="cls-32" d="M597.59,126.34a2.17,2.17,0,0,1-1.69-.8c-3-3.71-6.5-4.94-12.09-4.25a2.16,2.16,0,0,1-.53-4.29c7.08-.89,12,.9,16,5.82a2.16,2.16,0,0,1-.32,3A2.12,2.12,0,0,1,597.59,126.34Z"/><path class="cls-32" d="M523.1,121.47a2.14,2.14,0,0,1-1.16-.34,2.17,2.17,0,0,1-.66-3c3.59-5.61,11.41-5.94,17.17-3.88a2.17,2.17,0,1,1-1.46,4.08c-4.33-1.55-9.86-1.31-12.06,2.13A2.16,2.16,0,0,1,523.1,121.47Z"/><path class="cls-22" d="M528.54,152a12.34,12.34,0,0,1-12.36,12.31h0A12.33,12.33,0,0,1,503.87,152l0-10.46a12.33,12.33,0,0,1,12.36-12.31h0a12.34,12.34,0,0,1,12.31,12.36Z"/><path class="cls-21" d="M558.6,417.08a43.32,43.32,0,0,1,19.55,1.16c8.49,2.31,18,7.16,26.33,10.75,23.19-24.64,26.57-113,26.57-113L627,326.83s-32.64,14.81-32.36,16.42C594.8,344.56,571.42,408.9,558.6,417.08Z"/><path class="cls-19" d="M636.33,368.14c-2.43,23.28-5.65,49-9.38,60.26-2.59,7.83-11.6,5.26-22.47.59-8.37-3.59-17.84-8.44-26.33-10.75a43.68,43.68,0,0,0-17.85-1.41h0c-.58.06-1.14.16-1.69.26-9.44,1.68-16.4,6.28-25.07,7.42l-.45.06c-.27,0-.52.06-.77.08a24.16,24.16,0,0,1-2.63.21c-1.78,0-2.59-.35-4.85-1.16a104.82,104.82,0,0,0-13.6-3.57h0l-1.51-.31a.6.6,0,0,1-.21-.08.36.36,0,0,1-.17-.07A70.23,70.23,0,0,0,485.93,418q1.5-5,2.82-10.7c1.38-6,2.83-13.66,4.23-22.19l21.12-2.5.88-.11,7.44-.88,71.73-8.51Z"/><path class="cls-31" d="M634,66.41c2.25-6.91-8.92-22.57-8.92-22.57s-7.58,10.26-5,16.29S631.77,73.32,634,66.41Z"/><path class="cls-31" d="M632.4,64.53c8.32-3.33,24.17,11.72,24.17,11.72s-12,5.39-20.35,1.07C630,74.13,625.26,67.4,632.4,64.53Z"/><path class="cls-24" d="M633.86,153.93a4.86,4.86,0,0,1,5.38-4.27,4.15,4.15,0,0,1,.48.11,4.78,4.78,0,0,1,1.47-.08,4.87,4.87,0,0,1,4.27,5.39l-.76,6.29a4.86,4.86,0,0,1-5.39,4.27,4,4,0,0,1-.47-.11,4.79,4.79,0,0,1-5.74-5.31Z"/><path class="cls-21" d="M527.09,228.12c-18.83,9.94-24.72,30.8-24,65.79l2.27,16.57h16.86Z"/><path class="cls-21" d="M610.33,310.06c6.95-15.27,8-25,9.28-31.67L609,299.33,590.42,284l-1.84,1.21-1.77,1.75c-.37,8-.95,21.46-1.32,32-.07,1.86,4.78,2.62,8.36,2.66C600.19,321.63,607.23,316.84,610.33,310.06Z"/><path class="cls-28" d="M610.73,239.85c-8.22-4.82-9.39,1.22-31.05,32.92,0,0,4.41,7.73,4.86,8s12.89,5.91,12.89,5.91L614.79,257Z"/><path class="cls-23" d="M586.65,281.86c-3.1-.62-8.36-4.76-7.39-7.86s10.14-7.72,27.37,12.95c12.62,15.14-13.42,29.88-22.35,2.15C582.42,283.31,586.65,281.86,586.65,281.86Z"/><path class="cls-22" d="M462.6,335.62c44.2,8.08,83.28-.35,104.79-13.67a124.47,124.47,0,0,0,29.55-25.29c2.59-3.07,4.89-6.08,6.91-9,1.44-2.06-2.18-7.64-9.12-12.57a25.73,25.73,0,0,0-5.51-3.06c-5.44-2.12-8.48-.18-9.65,1.42A97.07,97.07,0,0,1,552.4,298.3c-23.32,14.43-53.43,20.53-89.55,18.15Z"/><path class="cls-24" d="M594.73,275.11a25.73,25.73,0,0,0-5.51-3.06c.67.61,1.4,1.32,2.19,2.16,5.85,6.15,6.7,16,5.53,22.45,2.59-3.07,4.89-6.08,6.91-9C605.29,285.62,601.67,280,594.73,275.11Z"/><path class="cls-26" d="M523.16,477.2c-3.91-18.14-5.77-42.66,7.63-52.14s30.91-14.22,58.94-2.47-42.25,17.72-43.07,18.34S523.16,477.2,523.16,477.2Z"/><polygon class="cls-33" points="575.53 434.77 575.54 434.77 575.53 434.77 575.53 434.77"/><path class="cls-34" d="M542.92,344.65c27.77,1.05,52.74,9.91,55.79,12.53,1.12.78,1.45,1.12,1.44,2.15.05-1.82.1-3.73.17-5.74-6.67-4.29-30-11.25-54.35-12.66-1.83,1.61-2.89,2.5-2.89,2.5C543,343.88,543,344.29,542.92,344.65Z"/><path class="cls-35" d="M492.76,349.55c2-.49,4.19-1,6.7-1.43a245.37,245.37,0,0,1,31.34-3.39c4.06-.21,8.12-.23,12.12-.08.05-.36.1-.77.16-1.22,0,0,1.06-.89,2.89-2.5a136.14,136.14,0,0,0-15.38-.09A269.13,269.13,0,0,0,500.45,344c-2.66.46-5.19,1-7.57,1.51C492.85,346.73,492.8,348.08,492.76,349.55Z"/><path class="cls-36" d="M599.9,366.32c-.09-1.62-.14-3.23-.17-4.83l.09,0c0,1.91.06,3.84.15,5.78C600,366.93,599.92,366.63,599.9,366.32Z"/><path class="cls-36" d="M555.27,373.91v-.11a2.92,2.92,0,0,0,.54-.77,7.2,7.2,0,0,0-.23.77Z"/><path class="cls-15" d="M596.11,444.1c-21.06,0-34.31,6.12-40.77,22.77s2.38,17,2.38,17,27.18-3.73,30.58-4.07,15-6.12,15-6.12Z"/><path class="cls-12" d="M579.08,476.52a17.75,17.75,0,0,0,17.7,17.7H677a18.93,18.93,0,0,0,18.64-17.67l.79-14.88A16.64,16.64,0,0,0,679.62,444H596.78a17.75,17.75,0,0,0-17.7,17.7Z"/><path class="cls-37" d="M595,404.75v49.77A20.57,20.57,0,0,0,615.53,475H664c11.28,0,19-9.11,17.2-20.24l-5.38-32.89c-1.81-11.13-6.35-20.24-10.08-20.24H659"/><path class="cls-38" d="M689.44,449.35c1.88,12.22-6.68,22.21-19,22.21H624.78c-12.36,0-22.48-9-22.48-20V441.08"/><path class="cls-39" d="M689.44,449.35l-5.12-33.11c-.26-1.68-.57-3.32-.93-4.9"/><path class="cls-40" d="M683.39,411.34c-2.21-9.88-6.07-17.31-9.28-17.31h-6.78"/><path class="cls-40" d="M602.3,431.57v9.51"/><path class="cls-41" d="M680.49,394H621.56c-10.59,0-19.26,8-19.26,17.73v17.73"/><path class="cls-42" d="M672.47,379.46H613.53a19.31,19.31,0,0,0-19.25,19.26v30.77"/><path class="cls-43" d="M204.73,658.44a12.7,12.7,0,1,1-25.39,0"/><path class="cls-43" d="M106.5,658.44a12.7,12.7,0,1,1-25.39,0"/><path class="cls-8" d="M306.82,658.44a12.7,12.7,0,1,1-25.39,0"/><path class="cls-8" d="M225.91,658.44a12.7,12.7,0,1,1-25.39,0"/><rect class="cls-44" x="731.48" y="345.67" width="23.85" height="326.8"/><rect class="cls-44" x="645.95" y="345.67" width="23.84" height="326.8"/><rect class="cls-45" x="658.44" y="345.67" width="11.36" height="326.8"/><polygon class="cls-46" points="669.8 501.78 669.8 672.47 645.78 672.47 645.78 512.43 669.8 501.78"/><rect class="cls-44" x="122.2" y="345.67" width="23.85" height="326.8"/><rect class="cls-44" x="37.91" y="345.67" width="23.85" height="326.8"/><rect class="cls-47" x="73.92" y="410.07" width="240.7" height="243.77"/><rect class="cls-48" x="214.39" y="410.07" width="100.23" height="243.77"/><path class="cls-49" d="M502,336.69c1.65.6,1.57,1.09-.19,1.09H331.37a3.21,3.21,0,0,1-3.2-3.19v-6.06a3.21,3.21,0,0,1,3.2-3.19h136a22,22,0,0,1,6.19,1.08Z"/><path class="cls-50" d="M510,334.59a3.2,3.2,0,0,1-3.19,3.19H470.22a3.21,3.21,0,0,1-3.19-3.19v-6.06a3,3,0,0,1,3.19-3l36.59,2.12A3.43,3.43,0,0,1,510,331Z"/><polygon class="cls-48" points="214.39 584.57 214.39 653.84 314.61 653.84 314.61 557.77 214.39 584.57"/><rect class="cls-47" x="36.65" y="345.77" width="719.24" height="45.56"/><rect class="cls-51" x="668.12" y="367.44" width="87.81" height="24.04"/><rect class="cls-52" x="36.65" y="344.6" width="632.51" height="22.85"/><line class="cls-53" x1="519.02" y1="256.51" x2="508.56" y2="304.66"/><line class="cls-54" x1="474.79" y1="255.45" x2="484.51" y2="310.7"/><path class="cls-55" d="M495.57,307.52a4.57,4.57,0,0,0,.5,0,4.28,4.28,0,0,0,4.24-3.79L503.64,275l.44-3.82.85-7.35a4.27,4.27,0,1,0-8.49-1l-.89,7.74-.44,3.75-3.29,28.41A4.27,4.27,0,0,0,495.57,307.52Z"/><path class="cls-56" d="M500.67,272.66a8.7,8.7,0,0,0-5.42.44l.31-2.73a8.53,8.53,0,0,1,5.41-.47,7.37,7.37,0,0,1,3.11,1.32l-.32,2.73A7.4,7.4,0,0,0,500.67,272.66Z"/><path class="cls-56" d="M492.15,286.76c-.42.29.53-3.35.68-4a68.74,68.74,0,0,0,1.09-7.42c.31-2.83,0-7.11,1.52-9.66a1.43,1.43,0,0,1,2.46,1.44c-.81,1.36-.66,3.94-.83,5.47-.26,2.41-.43,4.85-.81,7.25s-1,4.91-1.54,7.36c-.23.94-.31,1.47-1.13,2C492.07,290.27,490.65,287.8,492.15,286.76Z"/><rect class="cls-3" x="470.99" y="284.53" width="46.12" height="58.02"/><rect class="cls-57" x="470.99" y="284.53" width="22.77" height="58.02"/><rect class="cls-3" x="466.72" y="284.53" width="54.06" height="12.2"/><rect class="cls-58" x="470.99" y="296.79" width="46.12" height="6.1"/><rect class="cls-57" x="466.72" y="284.53" width="30.24" height="12.2"/><rect class="cls-29" x="508.74" y="284.53" width="6.9" height="12.2"/><rect class="cls-47" x="6.49" y="334.06" width="677.71" height="24.03"/><rect class="cls-51" x="680.86" y="334.05" width="112.65" height="24.04"/><rect class="cls-45" x="73.92" y="645.15" width="240.69" height="13.66"/><rect class="cls-59" x="73.92" y="645.14" width="140.47" height="13.66"/><polygon class="cls-44" points="669.98 391.22 645.7 391.22 645.7 407.18 657.84 399.2 669.98 399.2 669.98 391.22"/><path class="cls-50" d="M169.94,280.63c.1,4.09,13.88,7.39,18,7.39H432.67a7.19,7.19,0,0,0,7.22-7.39l-4-175.3a7.6,7.6,0,0,0-7.56-7.39H173.13a7.18,7.18,0,0,0-7.22,7.39Z"/><path class="cls-49" d="M426.48,280.63a7.18,7.18,0,0,1-7.21,7.39H164.1a7.58,7.58,0,0,1-7.56-7.39l-4-175.3a7.17,7.17,0,0,1,7.21-7.39H414.89a7.6,7.6,0,0,1,7.56,7.39Z"/><path class="cls-60" d="M334,287.85l-1.14.17h-81c10.25-23,53.53-74.69,55.14-75.09,2.08-.52,13.92-.52,13.92-.52Z"/><path class="cls-50" d="M315.38,205H278.79a10.14,10.14,0,0,0-9.26,7.38l-10.65,42.86-16.61,68.38a6.37,6.37,0,0,0,.29,4.27,5.48,5.48,0,0,0,5.23,3.11h36.62a10.13,10.13,0,0,0,9.25-7.38l6.63-27.32,2-8.31L320.9,212.4C321.94,208.33,319.47,205,315.38,205Zm-66,95.59,4.44-17.08a6.73,6.73,0,0,1,6.13-4.9h24.25a3.7,3.7,0,0,1,3.67,4.9l-4.44,17.08a6.71,6.71,0,0,1-6.14,4.89H253C250.29,305.5,248.66,303.32,249.34,300.61Z"/><polygon class="cls-50" points="316.42 214.28 319.54 206.69 315.64 198.13 293.66 196.58 306.89 213.7 316.42 214.28"/><path class="cls-61" d="M310.38,195.06H273.77a10.13,10.13,0,0,0-9.25,7.39L235.84,320.51c-1,4.08,1.44,7.4,5.52,7.4H278a10.15,10.15,0,0,0,9.26-7.4L315.28,205l.62-2.57C316.94,198.37,314.45,195.06,310.38,195.06Zm-22.55,88.47-4.44,17.08a6.71,6.71,0,0,1-6.14,4.89H253c-2.71,0-4.34-2.18-3.66-4.89l4.44-17.08a6.73,6.73,0,0,1,6.13-4.9h24.25A3.7,3.7,0,0,1,287.83,283.53Z"/><rect class="cls-61" x="219.65" y="321.61" width="123.33" height="12.44" rx="3.19"/><rect class="cls-50" x="304.99" y="321.61" width="42.96" height="12.44" rx="3.19"/><path class="cls-62" d="M257.78,298.56c-.13.21-.2.28-.22.22S257.61,298.65,257.78,298.56Z"/><polygon class="cls-63" points="769.67 301.96 769.67 334.5 612.87 334.5 612.87 327.16 617.1 327.16 617.1 309.31 612.87 309.31 612.87 301.96 769.67 301.96"/><polygon class="cls-64" points="687.55 301.96 687.55 334.5 612.87 334.5 612.87 327.16 617.1 327.16 617.1 309.31 612.87 309.31 612.87 301.96 687.55 301.96"/><rect class="cls-65" x="615.87" y="309.31" width="63.65" height="17.85"/><path class="cls-66" d="M256.34,304.11,260.78,287a6.7,6.7,0,0,1,6.13-4.89h21a3.57,3.57,0,0,0-3.78-3.5H259.91a6.7,6.7,0,0,0-6.13,4.89l-4.44,17.07c-.68,2.71.95,4.9,3.66,4.9h3.22A4.79,4.79,0,0,1,256.34,304.11Z"/><path class="cls-67" d="M529.76,421.4c-1.68,0-2.44-.34-4.58-1.1C526.64,420.67,528.16,421,529.76,421.4Z"/><path class="cls-29" d="M688.88,575.72a2.41,2.41,0,0,0-3.19.84,2.35,2.35,0,0,0,.83,3.2,4,4,0,0,1,2.55,3.28,2.39,2.39,0,0,0,2.33,2.34,2.36,2.36,0,0,0,2.34-2.34A8.55,8.55,0,0,0,688.88,575.72Z"/></g></g></svg>