<svg xmlns="http://www.w3.org/2000/svg" width="800" height="800" viewBox="0 0 800 800"><defs><style>.cls-1{isolation:isolate;}.cls-2{fill:#b8d2db;}.cls-3{fill:#2a2a29;}.cls-4{fill:#575756;}.cls-5{fill:#ffbb8d;}.cls-10,.cls-6{fill:#d9d9d9;}.cls-20,.cls-26,.cls-6,.cls-8,.cls-9{mix-blend-mode:multiply;}.cls-7{fill:#00afb0;}.cls-14,.cls-8{fill:#ececec;}.cls-11{fill:#1c1c1b;}.cls-12{fill:#101010;}.cls-13,.cls-17,.cls-25{fill:#fff;}.cls-13{opacity:0.3;}.cls-13,.cls-25{mix-blend-mode:soft-light;}.cls-15{fill:#f8af41;}.cls-16{fill:#0c283e;}.cls-18{fill:#72241d;}.cls-19{fill:#e64645;}.cls-20{fill:#c6c6c5;}.cls-21{fill:#174365;}.cls-22{fill:#422918;}.cls-23{fill:#191d23;}.cls-24{fill:#424a56;}.cls-25{opacity:0.2;}.cls-26{fill:#e3e3e2;}.cls-27{fill:#333942;}.cls-28{fill:#282e35;}.cls-29{fill:#576171;}.cls-30{fill:#874c32;}</style></defs><title>Track 1</title><g class="cls-1"><g id="Layer_1" data-name="Layer 1"><ellipse class="cls-2" cx="400" cy="684.69" rx="343.5" ry="48.03"/><rect class="cls-3" x="311.88" y="627.34" width="78.4" height="11.13" transform="translate(-194.28 157.08) rotate(-19.88)"/><path class="cls-3" d="M329.31,654.23c0,7.71-5.89,14-13.15,14s-13.15-6.25-13.15-14,5.88-14,13.15-14S329.31,646.52,329.31,654.23Z"/><rect class="cls-3" x="437.52" y="593.7" width="11.13" height="78.4" transform="translate(-302.77 834.39) rotate(-70.12)"/><path class="cls-3" d="M464.86,654.23c0,7.71,5.89,14,13.15,14s13.15-6.25,13.15-14-5.89-14-13.15-14S464.86,646.52,464.86,654.23Z"/><rect class="cls-3" x="382.59" y="523.87" width="26.74" height="102.24"/><polygon class="cls-3" points="397.84 661.87 393.65 661.87 389.33 616.8 402.84 616.8 397.84 661.87"/><path class="cls-3" d="M409.46,671.63a13.38,13.38,0,1,1-13.37-13.36A13.38,13.38,0,0,1,409.46,671.63Z"/><path class="cls-3" d="M481.23,500.26c0,13.2-38.12,23.9-85.14,23.9s-85.15-10.7-85.15-23.9,38.12-23.9,85.15-23.9S481.23,487.06,481.23,500.26Z"/><path class="cls-4" d="M481.23,483.74c0,13.2-38.12,23.9-85.14,23.9s-85.15-10.7-85.15-23.9,38.12-23.9,85.15-23.9S481.23,470.54,481.23,483.74Z"/><path class="cls-5" d="M511.49,314.59l31.08,37.28s8.31,30.4-19,24.23l-32.71-23.76Z"/><path class="cls-5" d="M287.84,311.64l-31.09,37.28s-8.3,30.4,19,24.23L308.5,349.4Z"/><path class="cls-5" d="M432.05,258h6.84L463,263.1s17.09,7,22.58,12.95l33.28,30.79L490,356.58l-27-8.29s5.07,46.18,0,77H338.2c-5.07-30.79,0-77,0-77l-27,8.29-28.86-49.74,33.28-30.79c5.48-5.92,22.58-12.95,22.58-12.95L362.26,258h69.79Z"/><path class="cls-6" d="M386,273.65c6.36,2.05,12.72,3.5,19.46,2.75a46,46,0,0,0,26.4-12H369.67C373.27,269.19,380.91,272,386,273.65Z"/><path class="cls-7" d="M432.05,258h6.84L463,263.1s17.09,7,22.58,12.95l33.28,30.79L490,356.58l-27-8.29s5.07,46.18,0,77H338.2c-5.07-30.79,0-77,0-77l-27,8.29-28.86-49.74,33.28-30.79c5.48-5.92,22.58-12.95,22.58-12.95L362.26,258h6.84s-4.78,29.91,31.47,32.86C400.57,290.85,432.58,290.26,432.05,258Z"/><path class="cls-8" d="M395.28,417.7c-34.58-4.52-61.56-24.55-66-58.89-1.3,15.09-3,44.66,1,66.45H467.06a146.39,146.39,0,0,0,1.87-15.43C446.39,420.24,416.05,420.41,395.28,417.7Z"/><path class="cls-8" d="M435.55,265.36c-.36,9.59,12.9,5.51,17.8,6.51,4.44.91,7.41,4.63,9.23,9,3,7.23,2.13,12.12,8.77,16.74,4,2.76,8.3,5.14,11.94,8.48,9,8.22,9.25,21.5,9.6,33.46a104.16,104.16,0,0,1-.27,12.4l26.19-45.15-33.28-30.79C480,270.13,463,263.1,463,263.1L438.89,258h-6.84c0,.46,0,.89,0,1.34C434.09,260.15,435.67,262.15,435.55,265.36Z"/><path class="cls-8" d="M315.75,302.27c12.1-23.09,33.09-30.41,52.05-44.28h-5.54L338.2,263.1s-17.1,7-22.58,12.95l-33.28,30.79,28.86,49.74,3.21-1C307.91,338.49,306.94,319.07,315.75,302.27Z"/><path class="cls-5" d="M479.62,217.75V181.29c5.66-70.9-62.36-80.38-75.75-79.73-13.38-.65-84.36,8.83-75.74,79.73v36.46s-.52,42.86,45.8,46.61h59.89C480.14,260.61,479.62,217.75,479.62,217.75Z"/><path class="cls-5" d="M498.37,210.21a13.09,13.09,0,1,1-13.08-13.09A13.08,13.08,0,0,1,498.37,210.21Z"/><g class="cls-9"><path class="cls-10" d="M486.23,217.12a8.25,8.25,0,0,0,1-.46,12,12,0,0,0,1.12-.74,8.43,8.43,0,0,0,1.09-1.07,6.87,6.87,0,0,0,.93-1.35,7.72,7.72,0,0,0,.61-1.58,7.05,7.05,0,0,0,.15-.81,8.64,8.64,0,0,0,.07-.9,7.14,7.14,0,0,0-.83-3.3,7.29,7.29,0,0,0-.92-1.35,8.49,8.49,0,0,0-1.1-1.07,12,12,0,0,0-1.12-.74c-.37-.18-.7-.35-1-.46a7.07,7.07,0,0,0-.7-.25l-.25-.09.26-.06a3.22,3.22,0,0,1,.74-.13,5.49,5.49,0,0,1,1.22,0,6.36,6.36,0,0,1,1.56.37,6.82,6.82,0,0,1,1.72.91,7.28,7.28,0,0,1,1.58,1.56,8,8,0,0,1,1.12,2.13,7.75,7.75,0,0,1,.3,3.7,8.8,8.8,0,0,1-.3,1.25,7.72,7.72,0,0,1-1.12,2.13,7.28,7.28,0,0,1-1.58,1.56,7,7,0,0,1-1.71.92,6.37,6.37,0,0,1-1.57.36,5.47,5.47,0,0,1-1.21,0,5.08,5.08,0,0,1-.75-.13l-.26-.07.25-.09A7.06,7.06,0,0,0,486.23,217.12Z"/><path class="cls-10" d="M483.48,206.14a4.52,4.52,0,1,1-4.51,4.52A4.53,4.53,0,0,1,483.48,206.14Z"/></g><path class="cls-5" d="M310.73,210.21a13.09,13.09,0,1,0,13.08-13.09A13.08,13.08,0,0,0,310.73,210.21Z"/><g class="cls-9"><path class="cls-10" d="M322.88,217.12a8.25,8.25,0,0,1-1-.46,12,12,0,0,1-1.13-.74,8.43,8.43,0,0,1-1.09-1.07,6.83,6.83,0,0,1-.92-1.35,7.75,7.75,0,0,1-.62-1.58c-.06-.28-.12-.57-.15-.81a8.68,8.68,0,0,1-.06-.9,7,7,0,0,1,.82-3.3,7.33,7.33,0,0,1,.93-1.35,8.43,8.43,0,0,1,1.09-1.07,12,12,0,0,1,1.13-.74c.37-.18.69-.35,1-.46a6.23,6.23,0,0,1,.69-.25l.25-.09-.25-.06a3.33,3.33,0,0,0-.74-.13,5.59,5.59,0,0,0-1.23,0,6.36,6.36,0,0,0-1.56.37,6.77,6.77,0,0,0-1.71.91,7.07,7.07,0,0,0-1.58,1.56,7.72,7.72,0,0,0-1.12,2.13,8.26,8.26,0,0,0-.41,2.48,8.64,8.64,0,0,0,.11,1.22,6.72,6.72,0,0,0,.3,1.25,7.7,7.7,0,0,0,1.11,2.13,7.51,7.51,0,0,0,1.58,1.56,6.87,6.87,0,0,0,1.72.92,6.3,6.3,0,0,0,1.56.36,5.47,5.47,0,0,0,1.21,0,5.26,5.26,0,0,0,.76-.13l.25-.07-.25-.09A7.06,7.06,0,0,1,322.88,217.12Z"/><path class="cls-10" d="M325.62,206.14a4.52,4.52,0,1,0,4.52,4.52A4.53,4.53,0,0,0,325.62,206.14Z"/></g><path class="cls-5" d="M382.81,254.27a22.3,22.3,0,0,0,41.74,0Z"/><path class="cls-8" d="M366.41,251.35a54,54,0,0,1-8.67-10.55,54.14,54.14,0,0,1-9.42-14.32c-11.14-23.34-8.76-48.75-1.71-73,3.44-11.81,7.87-23,15.07-33.06a49.71,49.71,0,0,1,6.26-11.06c-22.19,9.58-44.9,30-39.81,71.93v36.46s-.52,42.86,45.8,46.61H385.8A74.08,74.08,0,0,1,366.41,251.35Z"/><path class="cls-8" d="M380.56,110.52a3.39,3.39,0,0,1,1.73.2c11.42-3.34,23.33-4.85,34.75-3.18-2.16-2-4.42-3.93-6.78-5.74a48.66,48.66,0,0,0-6.39-.24,80.17,80.17,0,0,0-20.24,2.58c-2.16,2.25-4.31,4.53-6.4,6.85a3.09,3.09,0,0,1,.43.14A26.21,26.21,0,0,1,380.56,110.52Z"/><path class="cls-11" d="M323.81,197.12l6.33,13.54s3.53-42.29,3.53-47.22c0-42,43.3-41.11,43.3-41.11l15.75-30.27c-28.52-7.7-55.81,11.39-55.81,11.39s-31,19.77-18.32,94.76A18.06,18.06,0,0,1,323.81,197.12Z"/><path class="cls-12" d="M330.14,210.66s-.08-7.2.33-17.94c.21-5.39.36-11.61.71-18.28.18-3.33.31-6.77.54-10.27.13-1.9.06-3.53.22-5.42l.27-2.82.46-2.76a41.35,41.35,0,0,1,3.61-10.58,33.78,33.78,0,0,1,6.44-8.75A39.46,39.46,0,0,1,359,124.39a51.23,51.23,0,0,1,13-2.17,35.14,35.14,0,0,1,5,.11,45.75,45.75,0,0,0-4.87.67,63.51,63.51,0,0,0-12.3,3.52,41.26,41.26,0,0,0-14.6,9.73,33.3,33.3,0,0,0-5.52,8.05,37.56,37.56,0,0,0-3.15,9.62l-.45,2.53L335.8,159c-.18,1.67-.14,3.6-.28,5.22-.25,3.54-.6,7-.89,10.38s-.63,6.62-.94,9.7-.63,6-1,8.64C331.37,203.57,330.14,210.66,330.14,210.66Z"/><path class="cls-11" d="M371.57,164.83c-.77,1.21-2.53,1.48-4,1a12.4,12.4,0,0,0-12.48,3.25c-1.08,1.09-2.75,1.71-4,1h0c-1.26-.66-1.33-3,.3-4.64a17.59,17.59,0,0,1,17.68-4.6c2.24.67,3.3,2.71,2.52,3.9Z"/><path class="cls-8" d="M351.93,168a17.58,17.58,0,0,1,17.68-4.61,4.34,4.34,0,0,1,2,1.28c.59-1.2-.46-3.09-2.6-3.73a17.59,17.59,0,0,0-17.68,4.6c-1.5,1.54-1.55,3.6-.56,4.44A4.29,4.29,0,0,1,351.93,168Z"/><path class="cls-11" d="M434.5,164.83c.78,1.21,2.53,1.48,4,1A12.39,12.39,0,0,1,451,169.13c1.09,1.09,2.75,1.71,4,1h0c1.27-.66,1.33-3-.29-4.64a17.61,17.61,0,0,0-17.69-4.6c-2.23.67-3.3,2.71-2.52,3.9Z"/><path class="cls-8" d="M454.14,168a17.57,17.57,0,0,0-17.68-4.61,4.26,4.26,0,0,0-2,1.28c-.59-1.2.46-3.09,2.59-3.73a17.61,17.61,0,0,1,17.69,4.6c1.49,1.54,1.54,3.6.56,4.44A4.31,4.31,0,0,0,454.14,168Z"/><path class="cls-6" d="M374.14,121.84s20.53,34.66,88.1,13.44l-11.76-9Z"/><path class="cls-11" d="M479.62,198.52l-6.24,12.14-1.19-42.35c0-45.5-45.64-46-45.64-46L410.8,92.06c28.52-7.7,55.8,13.83,55.8,13.83s29.42,13.43,18.69,91.23C485.29,197.12,481.75,197.12,479.62,198.52Z"/><path class="cls-12" d="M466.6,105.89a19.32,19.32,0,0,1,5.17,3.34,40.47,40.47,0,0,1,4.31,4.47,49.67,49.67,0,0,1,3.49,5.16l1.55,2.71c.45.93.85,1.89,1.28,2.83l1.26,2.85,1,2.94,1,3c.32,1,.5,2,.76,3,.45,2,1.05,4,1.33,6.05l.89,6.13a57.52,57.52,0,0,1,.52,6.15c.1,2,.31,4.1.31,6.15s0,4.11-.08,6.16,0,4.1-.24,6.14l-.56,6.11c-.21,2-.31,4.07-.7,6.08q-1,6.06-2.08,12.06l-.09.46-.41,0a17.35,17.35,0,0,0-2.87.11A10.32,10.32,0,0,0,481,198a7.82,7.82,0,0,0-1.37.51,8.15,8.15,0,0,1,1.28-.76,10.79,10.79,0,0,1,1.4-.57,16.3,16.3,0,0,1,3-.57l-.5.43q.24-6.11.64-12.14c.17-2,.12-4,.2-6.06l.14-6c.13-2,0-4,0-6s-.1-4-.1-6-.27-4-.39-6l-.22-3a27,27,0,0,0-.28-3l-.78-5.93c-.26-2-.76-3.91-1.11-5.87-.2-1-.34-2-.6-2.92l-.81-2.87-.78-2.88-1-2.79c-.35-.93-.66-1.88-1-2.8L477.4,120a56.49,56.49,0,0,0-2.81-5.26l-1.68-2.46c-.56-.83-1.26-1.54-1.87-2.34A22.35,22.35,0,0,0,466.6,105.89Z"/><path class="cls-11" d="M366.32,117.56s45,29.38,95.23,9.24c0,0,22.8-11.27,28-23.09,0,0-17.4,1.37-21.57-2.4,0,0,16.28-5.86,17.26-26.87,0,0-19.35,5-28.86,0,0,0,6.29-6.89,5.16-18.84C450,64.4,435.64,70.53,421.05,70.23,392.6,69.64,357.5,81.87,366.32,117.56Z"/><path class="cls-12" d="M461.58,55.6s-1.55,1.31-4.32,3.54c-1.47,1-3.21,2.33-5.35,3.61l-3.45,2c-1.22.7-2.59,1.26-4,1.94A41.45,41.45,0,0,1,440,68.51l-2.4.88-2.55.67-2.62.7c-.89.2-1.82.31-2.74.48l-2.82.45c-1,.1-1.93.11-2.91.17L421,72l-2.88,0c-1.89.07-3.83.17-5.78.32a88.09,88.09,0,0,0-11.69,1.71,67.62,67.62,0,0,0-11.26,3.32,50.78,50.78,0,0,0-10,5.21,33.92,33.92,0,0,0-7.63,7.08,29.61,29.61,0,0,0-4.46,8.19,34.65,34.65,0,0,0-1.63,7.87,42.91,42.91,0,0,0,0,6.3c.07.88.13,1.66.19,2.35s.17,1.26.24,1.73l.2,1.44s-.15-.49-.41-1.4a33.63,33.63,0,0,1-1-4,36.81,36.81,0,0,1-.69-6.45,31.75,31.75,0,0,1,1-8.47,29.41,29.41,0,0,1,4.26-9.28,34.16,34.16,0,0,1,8-8.15A49.1,49.1,0,0,1,388,73.86a71.31,71.31,0,0,1,11.86-3.63,90.36,90.36,0,0,1,12.24-1.66c2-.15,4-.19,6.06-.18l2.94.06,2.77,0c.92,0,1.83,0,2.73-.07l2.67-.3c.89-.1,1.76-.16,2.62-.3l2.53-.52,2.46-.51,2.35-.69a39.62,39.62,0,0,0,4.43-1.42c1.39-.54,2.76-1,4-1.55l3.54-1.61c2.2-1,4-2.13,5.62-2.94Z"/><path class="cls-13" d="M376.79,109.36s45,32.18,106.69-3.47c0,0-11.31,10.06-29.89,0,0,0,20.38-8.75,23.53-23.83,0,0-18.8,16.35-42.26,9.49,0,0,6.81,8.2,17.59,5.91C452.45,97.46,439.25,123.54,376.79,109.36Z"/><path class="cls-13" d="M358.58,99.76s-31.17,4.43-39.07,48.22c0,0,5.62-16.3,10.63-19,0,0-11,22.28-6.32,57.86,0,0-1.35-59.42,32.78-71.54,0,0-12.91,2.11-19.69,7.9C336.91,123.22,339.05,109.36,358.58,99.76Z"/><path class="cls-13" d="M463.53,119.18s24,11.4,19,45.9c0,0-2-13.92-5.11-17.15,0,0,6.91,20-1.25,45.24,0,0,7.34-44.5-15-61.93,0,0,9.08,4.75,12.69,10.72C473.85,142,475.68,131.13,463.53,119.18Z"/><path class="cls-5" d="M257.16,372.46c8.24,4.34,17.48,5.88,26.5,6.61a187.09,187.09,0,0,0,22.08.57c7.18-.26,14.33-1.58,21.51-1.57,1,0,15.51.62,15.46,1.46L344,359.87c-17.84,1.92-24.09-2.2-24.09-2.2-36.44-13.86-61.26-10.11-61.26-10.11s-6,2.59-7.37,12.46C251.24,360,251.26,369.36,257.16,372.46Z"/><g class="cls-9"><path class="cls-14" d="M319.87,357.67s-3.16-.69-7.83-2c-2.33-.67-5.06-1.39-8-2.27-2.94-.59-6.06-1.29-9.17-2l-4.64-1.1-4.56-.74c-3-.44-5.7-1.16-8.09-1.39-4.76-.55-8-1.09-8-1.09s3.21-.14,8-.09a36.88,36.88,0,0,1,3.89.28c1.38.13,2.83.26,4.33.46l4.63.57,4.73,1c3.16.75,6.32,1.5,9.26,2.28,2.87,1,5.51,2.06,7.79,2.91C316.89,356.34,319.87,357.67,319.87,357.67Z"/></g><path class="cls-15" d="M344,359.87s25.41,1,30.1,20.95c0,0,1.95,4.83-2.79,4,0,0-3.39-7.38-7-8.69,0,0,4.35,9,3.5,18.43,0,0-3.61,2.89-5.77-1.05,0,0,0-6.95-3-12.21,0,0,2.35,10.09-.26,12.72,0,0-3.8,1.31-4.51-2.36l-1.52-8.41-4.51,6s-4.28,2.36-4.07-2.7l2.41-5.19a15.19,15.19,0,0,1-7.6-2.63Z"/><path class="cls-5" d="M542.17,375.41c-8.25,4.33-17.49,5.87-26.51,6.61a189.14,189.14,0,0,1-22.08.56c-7.17-.25-14.33-1.58-21.5-1.56-1,0-15.51.61-15.46,1.45l-1.25-19.66c17.83,1.92,24.09-2.2,24.09-2.2,36.44-13.86,61.26-10.11,61.26-10.11s6,2.6,7.37,12.47C548.09,363,548.07,372.31,542.17,375.41Z"/><g class="cls-9"><path class="cls-14" d="M479.46,360.61s3-1.33,7.53-3.09c2.28-.84,4.92-1.9,7.78-2.91,2.94-.77,6.1-1.52,9.26-2.27l4.73-1,4.63-.57c1.51-.19,3-.32,4.34-.46s2.67-.3,3.89-.28c4.84,0,8,.09,8,.09s-3.2.54-8,1.09c-2.38.24-5.12,1-8.08,1.4l-4.56.74-4.64,1.1c-3.11.69-6.23,1.4-9.17,2-2.9.89-5.63,1.6-8,2.27C482.61,359.93,479.46,360.61,479.46,360.61Z"/></g><path class="cls-15" d="M455.37,362.81s-25.41,1-30.1,20.95c0,0-2,4.84,2.79,4.05,0,0,3.38-7.38,7-8.7,0,0-4.35,9-3.5,18.43,0,0,3.62,2.9,5.78-1.05,0,0,.05-6.94,3-12.2,0,0-2.35,10.09.26,12.71,0,0,3.8,1.32,4.51-2.36l1.52-8.41,4.51,6s4.28,2.36,4.06-2.7l-2.4-5.19a15.18,15.18,0,0,0,7.59-2.62Z"/><polygon class="cls-5" points="313.77 498.6 325.71 602.06 358.29 602.06 366.56 496.04 313.77 498.6"/><path class="cls-16" d="M295.54,460.65s-5.7,30.84,24.61,35.39V447.63S299.79,453,295.54,460.65Z"/><path class="cls-15" d="M320.15,449.06s-22.84,3.95-17.34,49.88l59.78-2.9S381.8,437.89,320.15,449.06Z"/><polygon class="cls-17" points="322.42 573.55 325.71 602.06 358.29 602.06 360.51 573.55 322.42 573.55"/><path class="cls-18" d="M308.38,608.37c-5.47,2.8-11,6.9-13.86,8.66-7.77,4.86-24.81,17.25-16.18,28.47,0,.06,24.16,31.41,60.69-4.38,0,0,31.44-7.31,22.66-35.1,0,0-23.67,8.77-41.81,0C317.11,604.71,312.78,606.12,308.38,608.37Z"/><path class="cls-19" d="M319.88,596.5c18.14,8.76,41.81,0,41.81,0,8.78,27.79-22.66,35.09-22.66,35.09-36.53,35.8-60.65,4.45-60.69,4.39-8.63-11.22,11.43-21.65,19.19-26.5Z"/><path class="cls-8" d="M351.94,610.73c-7.3,2.3-20.69-4.25-24.95,3.75-3,5.59-4.09,13.77-9.29,18-9.16,7.42-25.82,5.14-31.65-5.72a23.19,23.19,0,0,1-2.58-7.87c-5.87,4.92-9.91,10.9-5.13,17.12,0,.06,24.16,31.41,60.69-4.39,0,0,28.16-6.56,23.71-30.84A16.33,16.33,0,0,1,351.94,610.73Z"/><path class="cls-6" d="M300.94,620.89a2.56,2.56,0,1,1,2.55,2.56A2.56,2.56,0,0,1,300.94,620.89Z"/><path class="cls-6" d="M304.41,620.89a2.55,2.55,0,0,1-1.74,2.41,2.53,2.53,0,0,0,.82.15,2.56,2.56,0,0,0,0-5.12,2.53,2.53,0,0,0-.82.15A2.55,2.55,0,0,1,304.41,620.89Z"/><path class="cls-6" d="M308.07,615.77a2.56,2.56,0,1,1,2.56,2.56A2.56,2.56,0,0,1,308.07,615.77Z"/><path class="cls-6" d="M311.54,615.77a2.55,2.55,0,0,1-1.74,2.41,2.56,2.56,0,1,0,.83-5,2.84,2.84,0,0,0-.83.15A2.55,2.55,0,0,1,311.54,615.77Z"/><path class="cls-6" d="M314.61,612a2.56,2.56,0,1,1,2.56,2.56A2.56,2.56,0,0,1,314.61,612Z"/><path class="cls-6" d="M318.08,612a2.57,2.57,0,0,1-1.73,2.42,2.48,2.48,0,0,0,.82.14,2.56,2.56,0,1,0,0-5.11,2.76,2.76,0,0,0-.82.14A2.56,2.56,0,0,1,318.08,612Z"/><path class="cls-6" d="M320.44,607.47A2.56,2.56,0,1,1,323,610,2.56,2.56,0,0,1,320.44,607.47Z"/><path class="cls-6" d="M323.92,607.47a2.56,2.56,0,0,1-1.74,2.41,2.48,2.48,0,0,0,.82.15,2.56,2.56,0,0,0,0-5.12,2.48,2.48,0,0,0-.82.15A2.55,2.55,0,0,1,323.92,607.47Z"/><path class="cls-6" d="M326.56,603.29a2.56,2.56,0,1,1,2.55,2.56A2.56,2.56,0,0,1,326.56,603.29Z"/><path class="cls-6" d="M330,603.29a2.56,2.56,0,0,1-1.74,2.42,2.76,2.76,0,0,0,.82.14,2.56,2.56,0,0,0,0-5.12,2.48,2.48,0,0,0-.82.15A2.56,2.56,0,0,1,330,603.29Z"/><path class="cls-6" d="M290.85,615.54a2.56,2.56,0,1,1,2.42,2.69A2.56,2.56,0,0,1,290.85,615.54Z"/><path class="cls-6" d="M294.32,615.73a2.55,2.55,0,0,1-1.87,2.31,2.52,2.52,0,0,0,.82.19,2.56,2.56,0,0,0,.27-5.11,2.82,2.82,0,0,0-.83.1A2.57,2.57,0,0,1,294.32,615.73Z"/><path class="cls-6" d="M298.24,610.8a2.56,2.56,0,1,1,2.42,2.69A2.56,2.56,0,0,1,298.24,610.8Z"/><path class="cls-6" d="M301.71,611a2.55,2.55,0,0,1-1.86,2.32,2.19,2.19,0,0,0,.81.19,2.56,2.56,0,1,0-.56-5A2.55,2.55,0,0,1,301.71,611Z"/><path class="cls-6" d="M305,607.42a2.56,2.56,0,1,1,2.43,2.69A2.57,2.57,0,0,1,305,607.42Z"/><path class="cls-6" d="M308.43,607.61a2.54,2.54,0,0,1-1.86,2.31,2.29,2.29,0,0,0,.82.19,2.56,2.56,0,1,0,.26-5.11,2.6,2.6,0,0,0-.83.11A2.54,2.54,0,0,1,308.43,607.61Z"/><path class="cls-6" d="M311,603.16a2.56,2.56,0,1,1,2.42,2.69A2.55,2.55,0,0,1,311,603.16Z"/><path class="cls-6" d="M314.5,603.34a2.55,2.55,0,0,1-1.86,2.32,2.67,2.67,0,0,0,.81.19,2.56,2.56,0,1,0-.56-5A2.55,2.55,0,0,1,314.5,603.34Z"/><path class="cls-6" d="M317.18,599.83a2.56,2.56,0,1,1,2.42,2.69A2.55,2.55,0,0,1,317.18,599.83Z"/><path class="cls-6" d="M320.65,600a2.56,2.56,0,0,1-1.87,2.32,2.8,2.8,0,0,0,.82.19,2.56,2.56,0,0,0,.27-5.11,2.52,2.52,0,0,0-.83.1A2.57,2.57,0,0,1,320.65,600Z"/><path class="cls-17" d="M304.41,621.68a1.36,1.36,0,0,1-1.86.52l-10-5.55a1.36,1.36,0,0,1-.53-1.86h0a1.36,1.36,0,0,1,1.86-.52l10,5.54a1.38,1.38,0,0,1,.53,1.87Z"/><path class="cls-20" d="M292.15,614.85l12.26,6.83a1.38,1.38,0,0,0-.53-1.87l-10-5.54a1.36,1.36,0,0,0-1.86.52,1.4,1.4,0,0,0-.17.51Z"/><path class="cls-17" d="M311.14,616.94a1.37,1.37,0,0,1-1.86.53l-10-5.56a1.37,1.37,0,0,1-.53-1.86h0a1.37,1.37,0,0,1,1.86-.52l10,5.55a1.37,1.37,0,0,1,.53,1.86Z"/><path class="cls-20" d="M298.88,610.1l12.26,6.84a1.37,1.37,0,0,0-.53-1.86l-10-5.55a1.37,1.37,0,0,0-1.86.52,1.44,1.44,0,0,0-.16.51Z"/><path class="cls-17" d="M318.58,613.47a1.37,1.37,0,0,1-1.86.53l-10-5.56a1.35,1.35,0,0,1-.53-1.85h0a1.37,1.37,0,0,1,1.86-.54l10,5.56a1.37,1.37,0,0,1,.53,1.86Z"/><path class="cls-20" d="M306.32,606.64l12.26,6.83a1.37,1.37,0,0,0-.53-1.86l-10-5.56a1.37,1.37,0,0,0-1.86.54,1.13,1.13,0,0,0-.16.51Z"/><path class="cls-17" d="M324.21,608.44a1.36,1.36,0,0,1-1.86.53l-10-5.55a1.37,1.37,0,0,1-.53-1.86h0a1.37,1.37,0,0,1,1.86-.53l10,5.55a1.37,1.37,0,0,1,.52,1.86Z"/><path class="cls-20" d="M312,601.61l12.26,6.83a1.37,1.37,0,0,0-.52-1.86l-10-5.55a1.37,1.37,0,0,0-1.86.53,1.39,1.39,0,0,0-.16.5Z"/><path class="cls-10" d="M318.7,601.74c1.39.75,3,0,4.1-1,1.48-1.44.42-3.36-.07-5.1a34.28,34.28,0,0,1-1.24-5.3c-.1-.88-.48-3.14.17-3.89,2.1-2.46,3.71,2.93,3.85,3.92a10.89,10.89,0,0,1-.78,5.52c-1.93,4.61-7.58,5.63-10.11.91-.74-1.39-2.86-5.65,0-5.55,2,.07,3.44,2.17,4.64,3.5s2.4,2.48,3.63,3.7c1.92,1.9,4,3.7,6,5.53.31.28.81-.14.5-.42-2.41-2.21-4.83-4.4-7.15-6.72-1.94-1.94-3.86-5-6.56-6-4.71-1.64-2.8,3.85-1.68,6.07,2.45,4.88,8.57,4.73,11-.12a10.86,10.86,0,0,0,.81-7.81c-.42-1.35-1.42-4-3.27-3.82s-1.73,2.69-1.67,4a27,27,0,0,0,1.22,6.14c.39,1.36,1,2.72.62,4.11a3.09,3.09,0,0,1-3.87,2.05c-.14,0-.29.17-.13.26Z"/><path class="cls-6" d="M293.4,612c-2.19,5.87-.4,13,7,14.79,7,1.64,11.68-.08,14.29-7,1.52-4,2.91-8,5.28-11.58,5.58-8.43,15.27-7.22,23.94-6,4.75.68,7.63-.82,9.31-3.44-8.53,1.8-22,3.17-33.35-2.31l-22.35,13C296.38,610.2,295,611,293.4,612Z"/><polygon class="cls-5" points="479.79 498.6 467.85 602.06 435.27 602.06 427 496.04 479.79 498.6"/><path class="cls-16" d="M498,460.65s5.69,30.84-24.62,35.39v-48.4S493.78,453,498,460.65Z"/><path class="cls-15" d="M473.41,449.06s22.84,3.95,17.35,49.88L431,496S411.76,437.89,473.41,449.06Z"/><path class="cls-21" d="M492.6,448.44l-37.33-23.18h-117L301,448.44c-12.84,6.5-4.61,27.71-4.61,27.71,4.61-27.71,34.77-22.71,34.77-22.71,31.7,3.7,31.45,42.6,31.45,42.6l34.21-17.63L431,496s-.25-38.9,31.45-42.6c0,0,30.16-5,34.77,22.71C497.21,476.15,505.44,454.94,492.6,448.44Z"/><path class="cls-21" d="M492.6,448.44l-37.33-23.18h-117L301,448.44c-12.84,6.5-4.61,27.71-4.61,27.71,4.61-27.71,34.77-22.71,34.77-22.71,31.7,3.7,31.45,42.6,31.45,42.6l34.21-17.63L431,496s-.25-38.9,31.45-42.6c0,0,30.16-5,34.77,22.71C497.21,476.15,505.44,454.94,492.6,448.44Z"/><path class="cls-20" d="M367.4,493.41c3.94-11.35,4.93-24-4.87-32.69-4.36-3.88-8.73-7.13-12.21-11.87-1.21-1.66-.95-4.49-.59-6.37.43-2.24-4.74-2.63-5.88-2.88-4-.86-5.28-5.6-3.57-8.86a18.36,18.36,0,0,1,4.48-5.64l-6.36,0L301,448.14c-12.86,6.45-4.7,27.7-4.7,27.7,4.7-27.7,34.85-22.61,34.85-22.61,31.68,3.8,31.31,42.7,31.31,42.7Z"/><path class="cls-20" d="M492.64,448.74l-37.26-23.29h-2.82a17.58,17.58,0,0,1-2.83,4.22c-.67.79-3.07,2.8-4,4.1.1.16.16.28.29.46a4.48,4.48,0,0,1,.61,1.08c.23.21.54.52,1,.94a8.71,8.71,0,0,1,2.1,3.43c1,3.72-.79,8-3.4,10.7a31.79,31.79,0,0,1-11.37,7.35c-7.21,2.89-9.6,8.06-10.19,15.87a79.13,79.13,0,0,0,1.15,20l5,2.59s-.13-38.9,31.58-42.51c0,0,30.18-4.9,34.7,22.82C497.16,476.46,505.46,455.27,492.64,448.74Z"/><polygon class="cls-17" points="471.14 573.55 467.85 602.06 435.27 602.06 433.05 573.55 471.14 573.55"/><path class="cls-18" d="M485.19,608.37c5.46,2.8,11,6.9,13.85,8.66,7.77,4.86,24.81,17.25,16.18,28.48-.05.06-24.16,31.4-60.69-4.39,0,0-31.44-7.31-22.66-35.1,0,0,23.67,8.77,41.81,0C476.45,604.71,480.78,606.12,485.19,608.37Z"/><path class="cls-19" d="M473.68,596.5c-18.14,8.77-41.81,0-41.81,0-8.78,27.79,22.66,35.1,22.66,35.1,36.53,35.79,60.64,4.44,60.69,4.38,8.63-11.22-11.43-21.65-19.19-26.5Z"/><path class="cls-8" d="M441.62,610.73c7.3,2.3,20.69-4.24,24.95,3.75,3,5.59,4.1,13.77,9.29,18,9.16,7.42,25.82,5.14,31.66-5.72a23.38,23.38,0,0,0,2.57-7.87c5.87,4.92,9.91,10.9,5.13,17.12-.05.06-24.16,31.41-60.69-4.38,0,0-28.16-6.57-23.71-30.85A16.33,16.33,0,0,0,441.62,610.73Z"/><path class="cls-6" d="M492.63,620.89a2.56,2.56,0,1,0-2.56,2.56A2.56,2.56,0,0,0,492.63,620.89Z"/><path class="cls-6" d="M489.15,620.89a2.55,2.55,0,0,0,1.74,2.41,2.53,2.53,0,0,1-.82.15,2.56,2.56,0,1,1,0-5.12,2.53,2.53,0,0,1,.82.15A2.55,2.55,0,0,0,489.15,620.89Z"/><path class="cls-6" d="M485.49,615.77a2.56,2.56,0,1,0-2.56,2.56A2.56,2.56,0,0,0,485.49,615.77Z"/><path class="cls-6" d="M482,615.77a2.54,2.54,0,0,0,1.74,2.41,2.55,2.55,0,1,1-.83-5,2.84,2.84,0,0,1,.83.15A2.55,2.55,0,0,0,482,615.77Z"/><path class="cls-6" d="M479,612a2.56,2.56,0,1,0-2.56,2.57A2.55,2.55,0,0,0,479,612Z"/><path class="cls-6" d="M475.48,612a2.56,2.56,0,0,0,1.74,2.42,2.53,2.53,0,0,1-3.39-2.42,2.56,2.56,0,0,1,2.56-2.55,2.89,2.89,0,0,1,.83.14A2.56,2.56,0,0,0,475.48,612Z"/><path class="cls-6" d="M473.12,607.47a2.56,2.56,0,1,0-2.56,2.56A2.56,2.56,0,0,0,473.12,607.47Z"/><path class="cls-6" d="M469.64,607.47a2.55,2.55,0,0,0,1.74,2.41,2.48,2.48,0,0,1-.82.15,2.56,2.56,0,0,1,0-5.12,2.48,2.48,0,0,1,.82.15A2.55,2.55,0,0,0,469.64,607.47Z"/><path class="cls-6" d="M467,603.29a2.56,2.56,0,1,0-2.56,2.56A2.56,2.56,0,0,0,467,603.29Z"/><path class="cls-6" d="M463.53,603.29a2.56,2.56,0,0,0,1.74,2.42,2.76,2.76,0,0,1-.82.14,2.56,2.56,0,1,1,0-5.11,2.48,2.48,0,0,1,.82.14A2.56,2.56,0,0,0,463.53,603.29Z"/><path class="cls-6" d="M502.71,615.54a2.56,2.56,0,1,0-2.42,2.69A2.56,2.56,0,0,0,502.71,615.54Z"/><path class="cls-6" d="M499.24,615.73A2.55,2.55,0,0,0,501.1,618a2.4,2.4,0,0,1-.81.19,2.56,2.56,0,0,1-.27-5.11,2.82,2.82,0,0,1,.83.1A2.56,2.56,0,0,0,499.24,615.73Z"/><path class="cls-6" d="M495.32,610.8a2.56,2.56,0,1,0-2.42,2.69A2.56,2.56,0,0,0,495.32,610.8Z"/><path class="cls-6" d="M491.85,611a2.57,2.57,0,0,0,1.87,2.32,2.51,2.51,0,0,1-.82.18,2.56,2.56,0,1,1-.27-5.11,2.53,2.53,0,0,1,.83.11A2.55,2.55,0,0,0,491.85,611Z"/><path class="cls-6" d="M488.59,607.43a2.56,2.56,0,1,0-2.42,2.68A2.56,2.56,0,0,0,488.59,607.43Z"/><path class="cls-6" d="M485.13,607.61a2.56,2.56,0,0,0,1.86,2.32,2.51,2.51,0,0,1-.82.18,2.56,2.56,0,1,1-.27-5.11,2.53,2.53,0,0,1,.83.11A2.55,2.55,0,0,0,485.13,607.61Z"/><path class="cls-6" d="M482.53,603.16a2.56,2.56,0,1,0-2.42,2.69A2.55,2.55,0,0,0,482.53,603.16Z"/><path class="cls-6" d="M479.06,603.34a2.55,2.55,0,0,0,1.86,2.32,2.67,2.67,0,0,1-.81.19,2.56,2.56,0,1,1,.56-5A2.55,2.55,0,0,0,479.06,603.34Z"/><path class="cls-6" d="M476.38,599.83a2.56,2.56,0,1,0-2.42,2.69A2.55,2.55,0,0,0,476.38,599.83Z"/><path class="cls-6" d="M472.92,600a2.53,2.53,0,0,0,1.86,2.32,2.8,2.8,0,0,1-.82.19,2.56,2.56,0,1,1-.27-5.11,2.52,2.52,0,0,1,.83.1A2.55,2.55,0,0,0,472.92,600Z"/><path class="cls-17" d="M489.15,621.68a1.36,1.36,0,0,0,1.86.52l10-5.55a1.37,1.37,0,0,0,.52-1.86h0a1.36,1.36,0,0,0-1.86-.52l-10,5.54a1.38,1.38,0,0,0-.53,1.87Z"/><path class="cls-20" d="M501.41,614.85l-12.26,6.83a1.38,1.38,0,0,1,.53-1.87l10-5.54a1.36,1.36,0,0,1,1.86.52,1.46,1.46,0,0,1,.17.51Z"/><path class="cls-17" d="M482.42,616.94a1.37,1.37,0,0,0,1.86.53l10-5.56a1.36,1.36,0,0,0,.53-1.85h0a1.37,1.37,0,0,0-1.86-.53l-10,5.55a1.37,1.37,0,0,0-.53,1.86Z"/><path class="cls-20" d="M494.69,610.1l-12.27,6.84a1.37,1.37,0,0,1,.53-1.86l10-5.55a1.37,1.37,0,0,1,1.86.53,1.33,1.33,0,0,1,.16.5Z"/><path class="cls-17" d="M475,613.47a1.37,1.37,0,0,0,1.86.53l10-5.55a1.37,1.37,0,0,0,.52-1.86h0a1.36,1.36,0,0,0-1.85-.54l-10,5.56a1.37,1.37,0,0,0-.53,1.86Z"/><path class="cls-20" d="M487.24,606.64,475,613.47a1.37,1.37,0,0,1,.53-1.86l10-5.56a1.36,1.36,0,0,1,1.85.54,1.32,1.32,0,0,1,.16.51Z"/><path class="cls-17" d="M469.35,608.44a1.36,1.36,0,0,0,1.86.53l10-5.55a1.37,1.37,0,0,0,.53-1.86h0a1.37,1.37,0,0,0-1.86-.53l-10,5.55a1.37,1.37,0,0,0-.52,1.86Z"/><path class="cls-20" d="M481.61,601.61l-12.26,6.83a1.37,1.37,0,0,1,.52-1.86l10-5.55a1.37,1.37,0,0,1,1.86.53,1.22,1.22,0,0,1,.16.5Z"/><path class="cls-10" d="M474.75,601.47a3.59,3.59,0,0,1-3.05-.65c-1.34-.94-1-2.42-.68-3.86.42-1.92,1.14-3.76,1.46-5.71.23-1.38.83-4.68-.57-5.75s-2.8.55-3.41,1.68a10.19,10.19,0,0,0-.71,7.53c1.25,4.73,7,8.42,10.79,3.83,1.12-1.35,4.46-7.52,1-8-3.05-.41-5.23,3.21-7,5-2.7,2.74-5.53,5.33-8.36,7.92-.31.28.11.78.42.5,2-1.83,4-3.63,6-5.53s3.92-4.71,6.17-6.32c.94-.67,3.26-1.76,3.63.18a3.84,3.84,0,0,1-.34,1.72,15.69,15.69,0,0,1-1.1,2.61c-2.4,4.52-7.91,4.1-10-.5a10.88,10.88,0,0,1-1-5.62c.15-1.18.8-3.68,1.89-4.35,2.6-1.58,2.29,2.48,2.24,3.3a30.08,30.08,0,0,1-1.3,6.08c-.49,1.73-1.55,3.67-.12,5.12,1,1,2.73,1.79,4.11,1,.13-.08.08-.32-.09-.28Z"/><path class="cls-6" d="M500.16,612c2.19,5.87.4,13-7,14.79-7,1.64-11.69-.08-14.3-7-1.52-4-2.91-8-5.28-11.58-5.58-8.43-15.27-7.22-23.94-6-4.75.68-7.63-.82-9.31-3.44,8.53,1.8,22,3.17,33.35-2.31l22.35,13C497.18,610.2,498.61,611.05,500.16,612Z"/><polygon class="cls-22" points="670.78 473.29 129.22 473.29 192.43 406.04 621.94 406.04 670.78 473.29"/><path class="cls-23" d="M509.05,446.24c-1.77,2.66-5.16,2.63-11.05,2.63H297.69c-5.89,0-10.66-1.17-10.66-2.63l-12.32-26.7c0-1.45-4.4-13.5,7.57-13.5H515.09c13.17,1.12,6.92,12.3,6.92,13.76Z"/><path class="cls-24" d="M508.23,437c0,4.56-4.71,8.25-10.52,8.25H299c-5.81,0-10.53-3.69-10.53-8.25L277.86,319.1c0-4.55,4.72-8.25,10.53-8.25H510.18c5.81,0,10.53,3.7,10.53,8.25Z"/><path class="cls-25" d="M339.17,340.45c-.83,16.21,2.83,32.87,13.69,45.43,16.93,19.55,43.15,26.95,68.21,28.38,25.83,1.48,52-1.78,73.12-18a84.48,84.48,0,0,0,14.91-14.78l6-56.66c0-4.28-4.43-7.75-9.89-7.75H343.8C340.72,325.06,339.46,334.79,339.17,340.45Z"/><path class="cls-26" d="M502.13,405.42c-26.34,18.45-59,22.31-90.3,18.58-30.75-3.66-64-15.43-79.45-44.46-9.38-17.62-11.62-37.54-7.63-57.05a114.17,114.17,0,0,1,2.94-11.64h-39.3c-5.81,0-10.53,3.7-10.53,8.25L288.44,437c0,4.56,4.72,8.25,10.53,8.25H497.71c5.81,0,10.52-3.69,10.52-8.25L512.47,397A95.42,95.42,0,0,1,502.13,405.42Z"/><path class="cls-27" d="M432.23,380.81a32.95,32.95,0,1,1-33-32.94A32.95,32.95,0,0,1,432.23,380.81Z"/><path class="cls-28" d="M427.92,380.81a28.64,28.64,0,1,1-28.64-28.64A28.64,28.64,0,0,1,427.92,380.81Z"/><path class="cls-29" d="M383.89,364.75h6.55a15.22,15.22,0,0,1,4.08.42,4.57,4.57,0,0,1,2.15,1.2,4.14,4.14,0,0,1,1,1.91,17.17,17.17,0,0,1,.25,3.47v2.17a9.09,9.09,0,0,1-.49,3.49,3.41,3.41,0,0,1-1.81,1.68,8.61,8.61,0,0,1-3.46.59h-1.74v10.07h-6.5Zm6.5,4.28v6.36h.48a1.47,1.47,0,0,0,1.24-.44,3.23,3.23,0,0,0,.35-1.83v-2.05a2.42,2.42,0,0,0-.4-1.67A2.59,2.59,0,0,0,390.39,369Z"/><path class="cls-29" d="M414.94,375.64h-6.5v-4.35a7.81,7.81,0,0,0-.21-2.37.89.89,0,0,0-.92-.46,1,1,0,0,0-1,.57,8.91,8.91,0,0,0-.21,2.47v11.61a8.28,8.28,0,0,0,.21,2.37.93.93,0,0,0,1,.56.91.91,0,0,0,1-.56,9.47,9.47,0,0,0,.22-2.61v-3.14h6.5v1a19.1,19.1,0,0,1-.55,5.51,5.66,5.66,0,0,1-2.42,2.84,8.36,8.36,0,0,1-4.63,1.22,9.6,9.6,0,0,1-4.71-1,5,5,0,0,1-2.45-2.87,18.83,18.83,0,0,1-.6-5.5v-7.3a33.56,33.56,0,0,1,.18-4.06,5.66,5.66,0,0,1,1.11-2.6,6.1,6.1,0,0,1,2.54-2,9.06,9.06,0,0,1,3.75-.72,9.29,9.29,0,0,1,4.74,1.1,5.39,5.39,0,0,1,2.45,2.77,16.67,16.67,0,0,1,.59,5.16Z"/><path class="cls-27" d="M510.25,444.24a7.13,7.13,0,0,1-7,7.21H293.34a7.13,7.13,0,0,1-7-7.21h0a7.13,7.13,0,0,1,7-7.2H503.21a7.12,7.12,0,0,1,7,7.2Z"/><rect class="cls-30" x="129.22" y="473.29" width="541.56" height="25.65"/><rect class="cls-30" x="129.22" y="498.94" width="35.19" height="209.96"/><rect class="cls-30" x="204.47" y="498.94" width="35.19" height="121.45"/><rect class="cls-30" x="542.81" y="498.94" width="35.19" height="121.45"/><rect class="cls-30" x="635.59" y="498.94" width="35.2" height="209.96"/></g></g></svg>