<svg xmlns="http://www.w3.org/2000/svg" width="800" height="800" viewBox="0 0 800 800"><defs><style>.cls-1{isolation:isolate;}.cls-2{fill:#b8d2db;}.cls-3{fill:#455a75;}.cls-4{fill:#62a6a3;}.cls-5{fill:#5a9996;}.cls-6{fill:#3d8784;}.cls-7{fill:#f06126;}.cls-8{fill:#c2522d;}.cls-9{fill:#ffbb8d;}.cls-10{fill:#070707;}.cls-11{fill:#d9d9d9;mix-blend-mode:multiply;}.cls-12{fill:#1e1e1d;}.cls-13{fill:#965114;}.cls-14{fill:#ba793e;}.cls-15{fill:#a15a1c;}.cls-16{fill:#ffeeb3;}.cls-17{fill:#d9c594;}.cls-18{fill:#4c6478;}.cls-19{fill:#31404d;}</style></defs><title>Track 2</title><g class="cls-1"><g id="Layer_1" data-name="Layer 1"><ellipse class="cls-2" cx="400" cy="689.9" rx="358.17" ry="46.28"/><polygon class="cls-3" points="526.36 690.43 536.06 690.43 536.06 509.58 509.62 509.58 526.36 690.43"/><polygon class="cls-3" points="260.93 690.43 251.22 690.43 251.22 509.58 277.66 509.58 260.93 690.43"/><path class="cls-4" d="M278,199.1H394.55a38.24,38.24,0,0,1,38.24,38.24V436.12a0,0,0,0,1,0,0H239.72a0,0,0,0,1,0,0V237.34A38.24,38.24,0,0,1,278,199.1Z"/><path class="cls-3" d="M295.71,199.1H412.3a38.24,38.24,0,0,1,38.24,38.24V436.12a0,0,0,0,1,0,0H260.35a2.88,2.88,0,0,1-2.88-2.88V237.34A38.24,38.24,0,0,1,295.71,199.1Z"/><path class="cls-3" d="M320.93,473.8a70.35,70.35,0,0,1,31.87-1.28q.56-46.53-3.06-93c-.13-1.74-27.52,2.46-30.33,3.24C317.57,412.73,320.21,443.69,320.93,473.8Z"/><path class="cls-5" d="M366,446.64c45.46-2,91.39-4.06,134.48,11.82,30.68,11.31,69.71,41.66,33.17,71.92C510.87,549.21,479,546.27,451.5,545.8c-52.35-.9-104.73-2.11-157.09-2.11-13-.05-26.67-.26-37.92-6.77-25.07-14.48-23.51-49.12-7.59-69.43,18.2-23.2,42.49-19.62,68.81-19.48C333.64,448.09,349.77,447.37,366,446.64Z"/><path class="cls-6" d="M472.37,524.93c-52.35-.9-104.73-2.11-157.09-2.11-13-.05-26.67-.27-37.92-6.77-22.27-12.86-23.52-41.63-12.35-62.13a48.3,48.3,0,0,0-16.11,13.57c-15.92,20.31-17.48,55,7.59,69.43,11.25,6.5,24.93,6.72,37.92,6.77,52.36,0,104.74,1.21,157.09,2.11,27.54.47,59.37,3.41,82.12-15.42,6.06-5,10-10,12.29-15C524.15,527.66,496.6,525.34,472.37,524.93Z"/><polygon class="cls-3" points="324.6 690.43 314.9 690.43 314.9 509.58 341.33 509.58 324.6 690.43"/><polygon class="cls-3" points="468.81 690.43 478.51 690.43 478.51 509.58 452.08 509.58 468.81 690.43"/><path class="cls-7" d="M458.26,286.55c9.38,11.82,22.41,29.17,20.23,29.74l-34.52,9c1.59,10.25.08,20.48.73,30.91,1.35,21.52,7.81,43.35,7.09,64.81-.19,5.88-1.93,12.91-7.53,14.67-3.33,1-6.87-.2-10.2-1.21a79.32,79.32,0,0,0-41.56-1.13,71.34,71.34,0,0,0-8,2.38c-6.58,2.35-12.85,5.6-19.64,7.2-1.1.26-2.19.48-3.28.65-23.36,3.78-46.27-11.08-70-15.06-.41-.07,3.09-30.85,3.62-33.63,2.17-11.37,1-12.23-10.42-16.52-8.75-3.28-14.73-11.74-17.41-20.7-7-23.31,2.59-47.61,15.79-66.77,10-14.57,23.23-28.77,40.08-36,20.44-8.81,43.58-4.81,65.16-6.68,23.41-2,45.59,11.55,61.19,27.9C450.75,277.27,454.15,281.38,458.26,286.55Z"/><path class="cls-8" d="M324.18,312.39c8.28-1.84,1.47,21.46,1.21,24.61a85,85,0,0,0,4.16,34.28c-.07-.19-5-.26-5.52-.35-1-6.4-11.81-10.41-14.72-17.05-4.43-10.13,6.21-26.23,10-35.66C320.24,315.77,321.75,312.94,324.18,312.39Z"/><path class="cls-8" d="M401.1,256.69c-.09-1.57-2.54-1.59-2.46,0,.46,8.74.19,17.87-5.06,25.28a28.38,28.38,0,0,1-20,11.72c-19.24,1.81-24-20.18-27.77-34.56-.07-.27-.46-.15-.41.11,1.67,9.33,4.37,19.77,9.39,27.95,4.42,7.21,11.67,10.37,20,9.29a30.62,30.62,0,0,0,20-11.67C401.06,276.72,401.63,266.54,401.1,256.69Z"/><path class="cls-9" d="M396.23,257.25c-.5,3-29.78.7-32.93.34-8.14-.93-7.92-7.69-10.12,3.29-2.65,13.29,11.43,30,25,26.35,6-1.61,10.59-6.55,13.29-12.12S395.21,263.35,396.23,257.25Z"/><path class="cls-10" d="M329.82,235.35c-20.13-7.29-25.18-23.61-31.66-42.83a226.75,226.75,0,0,1-11.3-55.88c-.78-10.69,2.15-19.75,7.38-29a45.11,45.11,0,0,1,9.9-12.09c1.33-1.12,12.17-6.3,12.26-6.71,4.09-18.25,24.58-29.15,41.36-32.45a89,89,0,0,1,105.56,77.26c3,26.1-11.17,54.29-21.22,77.75-4.39,10.25-8.93,19-19.64,23-12.59,4.7-26.25,5.59-39.55,6.16-14.66.62-29.52.82-43.83-2.5A80.32,80.32,0,0,1,329.82,235.35Z"/><path class="cls-9" d="M324.25,103.24c-16.31,12.85-27.13,32.86-25.72,53.46a7.78,7.78,0,0,0-5.6-9c-11.16-2.6-19,27.95-17.94,35.91,1.59,12.29,25.63,31.73,27.19,11.09,3.21,38.14,40.76,70,78.91,66.85s70.07-40.56,67.07-78.72c2.43,8.74,15.47,10.68,22.33,4.75s8.1-16.31,6.11-25.16c-2.92-12.91-18-29.31-27.71-11.59-.37-11.35,0-23.25-5.6-33.61C437,105.51,424.54,98.39,412,93.86c-24.14-8.73-51.85-9.79-75,1.37A69.68,69.68,0,0,0,324.25,103.24Z"/><path class="cls-10" d="M379.27,147.38c5,1.05,10.09,1.89,15.11,2.53a66.88,66.88,0,0,1-25-23.64c5.58,9.06,27.26,15.81,36.81,19,10.69,3.61,27.31,4.25,35.18,12.82-2.17-2.37,7.78-16.16,9.15-19,3.12-6.4,2.24-12.94,0-19.58-4.18-12.58-13.92-26.51-26.07-32.51-8.4-4.15-17.81-5.84-27.14-6.76-14-1.38-28.45-1.08-41.79,3.43-10.31,3.48-26.49,7.1-31,18.43-5.43,13.55,8.65,28.21,19.48,33.47A152.75,152.75,0,0,0,379.27,147.38Z"/><path class="cls-10" d="M332.26,131.43A93,93,0,0,1,319,144c-2.8,2.1-6.07,4-7.37,7.27a15.41,15.41,0,0,0-.76,5.42c-.21,10.5-1.34,20.19-5.07,30.13-4.71-14.11-9.44-34.7-7-49.58C301.33,121.57,309.83,108,322,97.9c9.33-7.76,24.74-11,24.79,4.76C346.77,111.8,340,122.63,332.26,131.43Z"/><path class="cls-10" d="M440,189.08c6-15.25,11.46-27.1,11.44-43.63.44-13.93-11.27-35.11-12.4-10.46C438.21,152.85,439.3,171.16,440,189.08Z"/><path class="cls-10" d="M347.42,161c-5-.27-10.38,1.41-13.4,5.55-.93,1.27.81,2.46,1.94,1.94,3.9-1.78,7.55-3.05,11.89-2.18,3.41.68,5.81,3.88,9.17,3.94a2.19,2.19,0,0,0,2.19-2.18C358.82,163,351.65,161.19,347.42,161Z"/><path class="cls-10" d="M407.45,161c5-.27,10.38,1.41,13.4,5.55.93,1.27-.8,2.46-1.94,1.94-3.9-1.78-7.54-3.05-11.89-2.18-3.41.68-5.8,3.88-9.16,3.94a2.19,2.19,0,0,1-2.19-2.18C396.05,163,403.22,161.19,407.45,161Z"/><path class="cls-11" d="M292.6,183.11a4.13,4.13,0,0,0-4.81,2.34,2,2,0,0,1-.23-.28c-1.31-2-1.13-4.55-.66-6.79.79-3.79,2.62-6.93,4.55-10.19a1.08,1.08,0,0,0-1.2-1.56c-4.88,1.4-7.68,10.53-7.6,15.06s3.82,10.49,9.18,9.38C295.86,190.23,297,184.24,292.6,183.11Z"/><path class="cls-11" d="M462.79,160.56c-.62-1.1-2.17-.14-1.66,1a34.68,34.68,0,0,1,2.58,8.07,17.72,17.72,0,0,1,.29,3.11c-2.38-2.32-6.41-2.08-7.92,1.18a4.79,4.79,0,0,0,3.81,6.87c3.7.37,6.15-3,6.58-6.33C467.1,169.69,465.07,164.6,462.79,160.56Z"/><path class="cls-12" d="M450.44,116.76a138.67,138.67,0,0,0-28.66-12.47,42.89,42.89,0,0,1,10.8,23.54c-6.06-9.77-15.58-17-25.88-22.13s-21.42-8.3-32.48-11.45a48.09,48.09,0,0,1,24-3.32,109,109,0,0,0-40.81-8.83c3.1.06,10.78-6.94,15.31-7.65a28,28,0,0,1,17.92,3.1c-4.43-2.69-9.59-4.31-14-6.7C399.53,55.3,442.16,98.18,450.44,116.76Z"/><path class="cls-12" d="M298.67,135.31c-5.84-7.9-3.43-17.64.62-25.77,2.93-5.88,11.32-8.63,13.77-13.36a54.51,54.51,0,0,0-5.63,18l11.73-8.91C315.57,110,303.74,134,308.49,140a19.34,19.34,0,0,1-4-13.69A14.74,14.74,0,0,0,298.67,135.31Z"/><path class="cls-8" d="M438.6,298.24a15,15,0,0,1,1.54,1.86,48.44,48.44,0,0,1,5,10.67c2.87,8.74-.16,17.74-.61,26.76a5.62,5.62,0,0,1-.33-.56,86.82,86.82,0,0,1-4.18-13.37c-2.72-10.59-4.84-21-6.64-31.86C433.67,293.29,436.61,296.08,438.6,298.24Z"/><path class="cls-8" d="M392.24,433.39v.06a71.12,71.12,0,0,0-7.71,2.3c-7.53,2.69-16,8-24,7.49,4.86-10.32,17.35-19.53,24.32-28.92C392.45,404,396,391.38,399.38,379c2,5.9.81,12.32-.37,18.42C396.92,408.31,391.25,422.56,392.24,433.39Z"/><path class="cls-11" d="M353.8,258s13.9,6.15,21.92,6.24,20.51-5.79,20.51-5.79S375.8,265,353.8,258Z"/><path class="cls-7" d="M358.83,679.61a35.05,35.05,0,0,0,4.23,4c8.63,6.92,23.82,9.61,33.41,3A27,27,0,0,0,406,675.09c2.09-5-.6-8.17-3.3-12.63a148.85,148.85,0,0,0-19.31-25.38c-8.58-9.06-20-22.47-33.79-20.78-8.83,1.08-16.77,9.75-16.76,18.84,0,4.94,4.39,9.93,6.79,14L349.58,666C352.36,670.74,355.2,675.54,358.83,679.61Z"/><path class="cls-9" d="M376.4,632.31c-2.82-8.24-1.86-18.87-2.12-27.11-.38-12.27,1.51-25,2.29-37.27l3-47.6-45.81,7.58,3.63,36.5q1.53,15.47,3.07,30.92c.46,4.63,1.58,9.68,1.43,14.34-.2,6.22-2.4,12.72-3,19.05-.6,6.12-.41,12.27,3.61,17.3,3.08,3.85,7.49,5.75,10.09,10.21,4.41,7.57,6.76,20.54,15.42,24.41,10.56,4.72,24.42,2.15,32.8-5.66,2.61-2.43,4.91-5.77,4.33-9.28-.44-2.7-2.46-4.83-4.39-6.77q-6.24-6.28-12.47-12.56c-3.34-3.37-8.7-7.12-10.8-11.41A22,22,0,0,1,376.4,632.31Z"/><path class="cls-7" d="M387.63,648.14c6.76.68,13.61,3.66,17.41,9.29,5.33,7.9,3,19.49-4,25.91-7.38,6.75-17.34,7.44-26.68,5.54-9.52-1.94-13.28-7.75-18.22-16-3.56-6-2.45-8.75,2.38-13.79A36.4,36.4,0,0,1,387.63,648.14Z"/><path class="cls-7" d="M453.79,679.61a35.05,35.05,0,0,0,4.23,4c8.63,6.92,23.82,9.61,33.41,3A26.93,26.93,0,0,0,501,675.09c2.09-5-.6-8.17-3.29-12.63a149.43,149.43,0,0,0-19.32-25.38c-8.57-9.06-20-22.47-33.79-20.78-8.83,1.08-16.77,9.75-16.75,18.84,0,4.94,4.38,9.93,6.78,14L444.54,666C447.32,670.74,450.17,675.54,453.79,679.61Z"/><path class="cls-9" d="M471.36,632.31c-2.82-8.24-1.85-18.87-2.11-27.11-.39-12.27,1.5-25,2.28-37.27l3-47.6-45.81,7.58,3.63,36.5q1.53,15.47,3.07,30.92c.46,4.63,1.59,9.68,1.43,14.34-.2,6.22-2.39,12.72-3,19.05-.6,6.12-.42,12.27,3.6,17.3,3.09,3.85,7.49,5.75,10.09,10.21,4.41,7.57,6.76,20.54,15.42,24.41,10.56,4.72,24.43,2.15,32.81-5.66,2.6-2.43,4.9-5.77,4.33-9.28-.44-2.7-2.47-4.83-4.4-6.77q-6.23-6.28-12.47-12.56c-3.34-3.37-8.7-7.12-10.8-11.41A25.82,25.82,0,0,1,471.36,632.31Z"/><path class="cls-7" d="M482.59,648.14c6.76.68,13.61,3.66,17.41,9.29,5.34,7.9,3,19.49-4,25.91-7.39,6.75-17.35,7.44-26.69,5.54-9.52-1.94-13.28-7.75-18.21-16-3.57-6-2.46-8.75,2.37-13.79A36.42,36.42,0,0,1,482.59,648.14Z"/><path class="cls-9" d="M365.78,376.05a43.37,43.37,0,0,1,26.9,9.28c3.9,3.13,7.5,8,5.88,12.76-1.91,5.55-9.19,6.56-15.06,6.61-12.21.1-25.72,1.88-37.81.37-8.74-1.09-17.44-11.86-25.86-11.86C306,388,259,369.43,278.1,348.57c11.18-12.24,23.32-4.42,34.5,2.16,4.39,2.58,36.17,28.79,38,28.08A41.93,41.93,0,0,1,365.78,376.05Z"/><polygon class="cls-13" points="109.08 710.57 96.4 710.57 96.4 509.58 130.96 509.58 109.08 710.57"/><polygon class="cls-13" points="677 710.57 664.32 710.57 642.44 509.58 677 509.58 677 710.57"/><rect class="cls-14" x="94.38" y="444.07" width="582.63" height="127.84"/><polygon class="cls-14" points="711.83 432.08 59.55 432.08 92.8 385.83 679.3 385.83 711.83 432.08"/><rect class="cls-15" x="59.55" y="432.08" width="652.28" height="34.21"/><polygon class="cls-8" points="225.96 414.89 259.33 394 131.56 382.9 88.67 401.02 225.96 414.89"/><polygon class="cls-8" points="86.43 381.13 87.19 402.98 225.96 414.89 225.96 393.34 88.67 379.48 86.43 381.13"/><polygon class="cls-7" points="225.96 393.34 259.33 372.45 131.56 361.35 88.67 379.48 225.96 393.34"/><polygon class="cls-16" points="225.96 393.34 255.71 374.72 255.71 393.74 225.96 412.8 225.96 393.34"/><path class="cls-17" d="M235,400.6c-2.88.66-5.52,2.67-8.06,4.11-.59.34-.07,1.2.53.9,2.62-1.29,5.74-2.35,7.9-4.37A.38.38,0,0,0,235,400.6Z"/><path class="cls-17" d="M253,384c-7.2,3.57-14.65,7.42-21.51,11.61a.72.72,0,0,0,.72,1.25c7.32-3.35,14.69-7.36,21.69-11.33C254.85,385,254,383.49,253,384Z"/><polygon class="cls-18" points="598.91 394.53 655.35 256.69 446.75 256.69 390.31 394.53 598.91 394.53"/><polygon class="cls-19" points="608.98 394.53 665.42 256.69 456.81 256.69 400.37 394.53 608.98 394.53"/><polygon class="cls-18" points="321.62 408.95 603.12 408.95 608.98 394.53 321.62 394.53 321.62 408.95"/><polygon class="cls-19" points="333.78 408.95 603.37 408.95 608.98 394.53 333.78 394.53 333.78 408.95"/><path class="cls-18" d="M556.3,334.27c-2.79,12.18-14.09,20-25.23,17.43S513.16,337.19,516,325s14.1-20,25.24-17.43S559.1,322.08,556.3,334.27Z"/></g></g></svg>